<svg xmlns="http://www.w3.org/2000/svg" width="43.089" height="33.029" viewBox="0 0 43.089 33.029"><path data-name="Path 7258" d="M40.133 16.395h-2.2v-2.642a1.987 1.987 0 00-1.985-1.985h-6.44a1.987 1.987 0 00-1.985 1.985v2.642h-2.2a3.036 3.036 0 00-2.763 2.161 8.653 8.653 0 00-1.443-.3 4.879 4.879 0 001.3-3.312V1.803a1.805 1.805 0 00-1.8-1.8H9.764A4.081 4.081 0 005.687 4.08v10.867a4.887 4.887 0 001.37 3.392A8.683 8.683 0 000 26.856v6.176h40.133a2.959 2.959 0 002.956-2.956V19.354a2.959 2.959 0 00-2.956-2.959zm-10.625-2.688h6.439l.05.05v2.638h-6.525zm-4.189 4.627h14.817a1.021 1.021 0 011.02 1.02v1.448H26.222a8.718 8.718 0 00-1.89-1.464c.123-.526.563-1.004.984-1.004zm6.467 4.4h1.882v.494h-1.882zM7.623 9.595a9.908 9.908 0 003.335.6 8.537 8.537 0 002.218-.289 18.361 18.361 0 003.778-1.51 3.943 3.943 0 012.052-.685 2.184 2.184 0 011.467 1.277v5.957a2.975 2.975 0 01-2.971 2.97h-6.91a2.974 2.974 0 01-2.97-2.97zm9.785 10.52l-3.075 3.93-3.152-3.93zM9.764 1.935h10.708v4.271a3.238 3.238 0 00-1.234-.417 5.416 5.416 0 00-3.157.879 16.473 16.473 0 01-3.407 1.367 7.684 7.684 0 01-5.051-.533V4.077a2.144 2.144 0 012.141-2.142zm13.564 29.16H1.935v-4.24a6.745 6.745 0 016.737-6.738h.036l5.652 7.048 5.512-7.048h.153a6.745 6.745 0 016.737 6.738v4.24zm16.8 0H28.694v-4.24a8.616 8.616 0 00-1.041-4.116h2.2v.856a1.575 1.575 0 001.573 1.573h2.638a1.544 1.544 0 001.542-1.542v-.887h5.552v7.335a1.021 1.021 0 01-1.025 1.021z" fill="#0095ce"/></svg>