<svg data-name="Group 359" xmlns="http://www.w3.org/2000/svg" width="35.985" height="41.896" viewBox="0 0 35.985 41.896"><path data-name="Path 7256" d="M23.862 30.438l3.93-6.095a11.824 11.824 0 002.32-7.1 12.039 12.039 0 10-23.033 4.9h-.161l5.325 8.3c-4.2 1-6.733 2.993-6.733 5.4 0 3.451 5.4 6.053 12.565 6.053s12.565-2.6 12.565-6.053c-.001-2.397-2.564-4.405-6.778-5.405zm-14.042-7.8a9.78 9.78 0 01-1.537-6.61 9.866 9.866 0 0119.656 1.218 9.572 9.572 0 01-1.914 5.836l-7.984 12.372-7.147-11.138h.027zm8.255 17.088c-6.439 0-10.392-2.26-10.392-3.88 0-1.16 2.032-2.7 5.814-3.448l2.785 4.341a2.085 2.085 0 001.757.961 2.084 2.084 0 001.757-.958l2.807-4.352c3.81.749 5.862 2.309 5.862 3.456.001 1.618-3.953 3.878-10.391 3.878z" fill="#0095ce"/><path data-name="Path 7257" d="M13.625 20.011l-.352 2.049a2.037 2.037 0 002.96 2.15l1.841-.967 1.84.967a2.04 2.04 0 002.96-2.15l-.351-2.049 1.489-1.452a2.04 2.04 0 00-1.131-3.48l-2.057-.3-.92-1.864a2.029 2.029 0 00-1.83-1.138 2.027 2.027 0 00-1.829 1.138l-.92 1.864-2.057.3a2.04 2.04 0 00-1.131 3.48zm2.081-3.09a2.043 2.043 0 001.537-1.117l.832-1.685.832 1.685a2.038 2.038 0 001.54 1.116l1.861.27-1.346 1.312a2.04 2.04 0 00-.588 1.807l.318 1.852-1.665-.874a2.042 2.042 0 00-1.9 0l-1.664.874.318-1.852a2.039 2.039 0 00-.587-1.806l-1.347-1.313z" fill="#0095ce"/><path data-name="Rectangle 116" fill="#0095ce" d="M17.044 0h2.173v3.435h-2.173z"/><path data-name="Rectangle 117" fill="#0095ce" d="M28.316 8.212l2.429-2.429L32.28 7.32l-2.428 2.429z"/><path data-name="Rectangle 118" fill="#0095ce" d="M29.602 25.36l1.537-1.537 2.428 2.429-1.537 1.536z"/><path data-name="Rectangle 119" fill="#0095ce" d="M32.55 15.755h3.435v2.173H32.55z"/><path data-name="Rectangle 120" fill="#0095ce" d="M3.704 7.319l1.537-1.537 2.428 2.43-1.536 1.536z"/><path data-name="Rectangle 121" fill="#0095ce" d="M2.417 26.252l2.429-2.429 1.536 1.537-2.429 2.428z"/><path data-name="Rectangle 122" fill="#0095ce" d="M0 15.755h3.434v2.173H0z"/></svg>