<svg data-name="Group 358" xmlns="http://www.w3.org/2000/svg" width="45.551" height="38.996" viewBox="0 0 45.551 38.996"><path data-name="Path 7250" d="M45.551 23.262a8.187 8.187 0 00-7.159-8.11v-.4a1.965 1.965 0 00-1.963-1.962H20.421a1.965 1.965 0 00-1.962 1.965v16.6a3.056 3.056 0 00.161.939h-1.261a2.124 2.124 0 00-2.122 2.122v2.457a2.124 2.124 0 002.122 2.122h22.134a2.124 2.124 0 002.121-2.122v-2.457a2.124 2.124 0 00-2.121-2.122h-1.261a3.065 3.065 0 00.159-.923 8.188 8.188 0 007.16-8.109zm-2.173 0a6.012 6.012 0 01-4.986 5.914v-1.217a4.815 4.815 0 003.786-4.7 4.815 4.815 0 00-3.786-4.7v-1.218a6.013 6.013 0 014.986 5.921zm-4.986 2.429v-4.859a2.64 2.64 0 011.613 2.429 2.64 2.64 0 01-1.612 2.429zm1.048 11.131l-22.031.051-.051-2.406 4.117-.01c.032 0 .062.01.094.01H35.28a3.063 3.063 0 00.422-.043l3.738-.009zm-17.871-4.528a.94.94 0 01-.939-.939V14.966h15.589v16.391a.939.939 0 01-.939.939z" fill="#0095ce"/><path data-name="Path 7251" d="M26.92 10.788l1.026-.347h1.086a1.462 1.462 0 00-.176-.647 3.222 3.222 0 01-.323-2.293 10.878 10.878 0 01.78-1.551 7.364 7.364 0 001.288-3.721l-2.172.056a5.689 5.689 0 01-1.006 2.6 12.647 12.647 0 00-.933 1.883 5.312 5.312 0 00.387 3.925z" fill="#0095ce"/><path data-name="Path 7252" d="M31.858 10.788l1.026-.347h1.086a1.473 1.473 0 00-.176-.647 3.222 3.222 0 01-.324-2.293 11.065 11.065 0 01.78-1.551 7.357 7.357 0 001.287-3.721l-2.179.052a5.689 5.689 0 01-1 2.6 12.646 12.646 0 00-.933 1.883 5.308 5.308 0 00.387 3.925z" fill="#0095ce"/><path data-name="Path 7253" d="M22.108 10.788l1.026-.347h1.086a1.458 1.458 0 00-.176-.647 3.216 3.216 0 01-.324-2.292 10.834 10.834 0 01.78-1.551 7.371 7.371 0 001.287-3.722l-2.172.056a5.689 5.689 0 01-1.006 2.6 12.531 12.531 0 00-.933 1.884 5.311 5.311 0 00.387 3.924z" fill="#0095ce"/><path data-name="Path 7254" d="M16.931 8.466A8.475 8.475 0 008.465 0 8.475 8.475 0 000 8.466a8.472 8.472 0 007.378 8.387v4.79a3.733 3.733 0 00-2.655 3.562 3.746 3.746 0 003.742 3.742 3.746 3.746 0 003.742-3.742 3.733 3.733 0 00-2.655-3.562v-4.79a8.472 8.472 0 007.379-8.387zm-14.758 0a6.3 6.3 0 016.292-6.293 6.3 6.3 0 016.293 6.293 6.3 6.3 0 01-6.293 6.292 6.3 6.3 0 01-6.292-6.292zm7.861 16.738a1.57 1.57 0 01-1.569 1.569 1.571 1.571 0 01-1.569-1.569 1.57 1.57 0 011.569-1.569 1.57 1.57 0 011.569 1.569z" fill="#0095ce"/><path data-name="Path 7255" d="M11.171 7.589H9.602V5.87H7.434v3.892h3.742z" fill="#0095ce"/></svg>