<svg xmlns="http://www.w3.org/2000/svg" width="39.783" height="39.164" viewBox="0 0 39.783 39.164"><g data-name="Group 363" fill="#0095ce"><path data-name="Path 7269" d="M36.27 34.628a4.123 4.123 0 00.615-2.147v-4.613a1.8 1.8 0 00-1.8-1.8h-3.8a3.538 3.538 0 00-3.534 3.534v2.876a4.129 4.129 0 00.654 2.22 4.7 4.7 0 00-2.343 1.678 4.707 4.707 0 00-2.581-1.751 4.123 4.123 0 00.615-2.147v-4.613a1.8 1.8 0 00-1.8-1.8h-3.8a3.538 3.538 0 00-3.534 3.534v2.876a4.129 4.129 0 00.648 2.221 4.692 4.692 0 00-2.117 1.4 4.689 4.689 0 00-2.354-1.477 4.13 4.13 0 00.614-2.147v-4.613a1.8 1.8 0 00-1.8-1.8h-3.8a3.538 3.538 0 00-3.534 3.534v2.876a4.137 4.137 0 00.654 2.22 4.7 4.7 0 00-3.276 4.463h2.317a2.4 2.4 0 012.394-2.393h5.233a2.4 2.4 0 012.393 2.393h2.317a2.4 2.4 0 012.393-2.393h5.233a2.4 2.4 0 012.394 2.393h2.77a2.4 2.4 0 012.393-2.393h5.233a2.4 2.4 0 012.394 2.393h2.317a4.705 4.705 0 00-3.508-4.524zM4.94 29.605a1.217 1.217 0 011.216-1.216h3.283v4.093a1.851 1.851 0 01-1.849 1.849h-.8a1.851 1.851 0 01-1.849-1.849zm12.338 0a1.217 1.217 0 011.216-1.216h3.283v4.093a1.851 1.851 0 01-1.849 1.849h-.8a1.851 1.851 0 01-1.849-1.849zm12.79 0a1.217 1.217 0 011.216-1.216h3.283v4.093a1.851 1.851 0 01-1.85 1.849h-.8a1.851 1.851 0 01-1.849-1.849z"/><path data-name="Path 7270" d="M10.623 24.35l2.281-.407-1.3-7.264h14.653l-1.3 7.264 2.281.407 1.369-7.671h.947v-2.317h-2.313a5.179 5.179 0 00-4.021-4.761 4.532 4.532 0 00.759-2.51V1.88A1.882 1.882 0 0022.099 0h-4.3a3.848 3.848 0 00-3.843 3.843v3.252a4.529 4.529 0 00.806 2.579 5.179 5.179 0 00-3.756 4.692H8.122v2.317h1.123zm5.659-20.511a1.528 1.528 0 011.526-1.526h3.861v4.778a2.244 2.244 0 01-2.241 2.241h-.9a2.244 2.244 0 01-2.242-2.241zm-.107 7.95h5.915a2.852 2.852 0 012.828 2.573H13.347a2.85 2.85 0 012.828-2.569z"/></g></svg>