<svg xmlns="http://www.w3.org/2000/svg" width="88.792" height="69.413" viewBox="0 0 88.792 69.413"><g data-name="Group 367" fill="#0095ce"><rect data-name="Rectangle 133" width="3.666" height="3.925" rx="1.375" transform="translate(9.868 10.428)"/><rect data-name="Rectangle 134" width="3.666" height="3.925" rx="1.375" transform="translate(15.752 10.428)"/><rect data-name="Rectangle 135" width="3.665" height="3.925" rx="1.375" transform="translate(21.636 10.428)"/><path data-name="Path 7280" d="M26.027 41.809a.412.412 0 01.154.105 1.69 1.69 0 01.176.941v4.167a5.4 5.4 0 00.512 2.827 2.21 2.21 0 001.163.959 6.512 6.512 0 001.725.171c.181 0 .551-.008 1.107-.024l.257-.007v-2.091l-.25-.015c-.675-.036-.854-.19-.9-.256s-.177-.377-.177-1.563v-2.96a8.32 8.32 0 00-.238-2.786 1.76 1.76 0 00-.827-.825 1.765 1.765 0 00.834-.828 8.474 8.474 0 00.232-2.779v-2.639c0-1.2.128-1.5.182-1.581s.226-.22.887-.239l.256-.007v-2.092l-.252-.013a28.47 28.47 0 00-1.125-.036 3.6 3.6 0 00-2.631.765c-.509.513-.757 1.561-.757 3.2v2.746a6.368 6.368 0 01-.148 2.026c-.024.046-.154.2-.78.219l-.256.007v1.292a1.431 1.431 0 00.856 1.316z"/><path data-name="Path 7281" d="M59.964 50.977a4.9 4.9 0 002.017-.315 2.088 2.088 0 001.046-1.191 7.1 7.1 0 00.31-2.449v-3.065c0-.9.012-1.47.035-1.69a.592.592 0 01.2-.4 1.059 1.059 0 01.69-.169h.259v-1.286a1.436 1.436 0 00-.863-1.318.37.37 0 01-.144-.1 1.687 1.687 0 01-.163-.955l-.013-3.831a6.3 6.3 0 00-.364-2.553 2.359 2.359 0 00-.982-1.1 4.733 4.733 0 00-2.066-.315c-.175 0-.542.013-1.1.036l-.253.012v2.093l.257.007c.668.019.844.174.889.24a3.489 3.489 0 01.18 1.58v2.639a8.266 8.266 0 00.239 2.786 1.749 1.749 0 00.827.824 1.776 1.776 0 00-.835.831 8.471 8.471 0 00-.232 2.778v2.96c0 1.229-.135 1.51-.176 1.568s-.225.214-.9.251l-.25.015v2.091l.256.007q.791.019 1.136.019z"/><path data-name="Path 7282" d="M83.345 0h-77.9A5.452 5.452 0 00-.001 5.447v58.519a5.452 5.452 0 005.446 5.447h77.9a5.453 5.453 0 005.447-5.447V5.447A5.453 5.453 0 0083.345 0zm1.231 63.966a1.233 1.233 0 01-1.231 1.231h-77.9a1.232 1.232 0 01-1.23-1.231V5.447a1.232 1.232 0 011.23-1.231h77.9a1.232 1.232 0 011.231 1.231z"/><path data-name="Path 7283" d="M76.686 21.128h-64.58a4.087 4.087 0 00-4.082 4.083v30.791a4.086 4.086 0 004.082 4.081h64.58a4.087 4.087 0 004.082-4.081V25.211a4.088 4.088 0 00-4.082-4.083zm-.138 34.739H12.24V25.344h64.308z"/><path data-name="Path 7284" d="M32.461 14.353h.764c.042 0 .081-.009.122-.013h44.8c.04 0 .08.013.121.013h.766a1.451 1.451 0 001.45-1.449v-1.027a1.451 1.451 0 00-1.45-1.449h-.758c-.045 0-.087.01-.132.014H33.36c-.044 0-.087-.014-.133-.014h-.766a1.451 1.451 0 00-1.449 1.449v1.031a1.451 1.451 0 001.449 1.445z"/><path data-name="Path 7285" d="M51.498 29.192h-3.529l-10.83 22.215h3.53z"/></g></svg>