<svg xmlns="http://www.w3.org/2000/svg" width="15" height="15" viewBox="0 0 15 15"><g data-name="Group 78" fill="#0095ce"><path data-name="Path 165" d="M.4 12.4a3.965 3.965 0 002.2 2.2 5.028 5.028 0 001.811.34c.792.028 1.047.057 3.085.057s2.292 0 3.085-.057a5.563 5.563 0 001.811-.34 3.965 3.965 0 002.208-2.2 5.027 5.027 0 00.34-1.811c.028-.792.057-1.047.057-3.085s0-2.292-.057-3.085A5.562 5.562 0 0014.6 2.6 3.965 3.965 0 0012.4.4a5.027 5.027 0 00-1.811-.34C9.797.032 9.542.003 7.504.003s-2.292 0-3.085.057A5.565 5.565 0 002.6.4 3.965 3.965 0 00.4 2.6a5.029 5.029 0 00-.34 1.811C.032 5.203.003 5.458.003 7.496s0 2.292.057 3.085A4.386 4.386 0 00.4 12.4zm.991-7.953a4.4 4.4 0 01.255-1.387 2.911 2.911 0 01.566-.877 2.35 2.35 0 01.877-.566 3.694 3.694 0 011.387-.255c.792-.028 1.019-.057 3.028-.057s2.236 0 3.028.057a4.395 4.395 0 011.387.255 2.911 2.911 0 01.877.566 2.35 2.35 0 01.566.877 3.691 3.691 0 01.255 1.387c.028.792.057 1.019.057 3.028s0 2.236-.057 3.028a4.395 4.395 0 01-.255 1.387 2.911 2.911 0 01-.566.877 2.05 2.05 0 01-.877.566 3.693 3.693 0 01-1.387.255c-.792.028-1.019.057-3.028.057s-2.236 0-3.028-.057a4.4 4.4 0 01-1.387-.255 2.912 2.912 0 01-.877-.566 2.049 2.049 0 01-.566-.877 3.7 3.7 0 01-.255-1.387c-.028-.792-.057-1.019-.057-3.028-.004-1.984.025-2.239.053-3.032z"/><path data-name="Path 166" d="M7.5 11.154a3.655 3.655 0 10-3.655-3.655A3.658 3.658 0 007.5 11.154zm0-6.046A2.392 2.392 0 115.108 7.5 2.4 2.4 0 017.5 5.108z"/><path data-name="Path 167" d="M11.489 4.464a.954.954 0 10-.954-.954.942.942 0 00.954.954z"/></g></svg>