<svg xmlns="http://www.w3.org/2000/svg" width="173.904" height="114.014" viewBox="0 0 173.904 114.014"><g data-name="Group 47"><g data-name="Group 1"><rect data-name="Rectangle 1" width="6.876" height="6.876" rx=".643" fill="#fff" transform="translate(53.513)"/></g><g data-name="Group 2"><rect data-name="Rectangle 2" width="6.876" height="6.876" rx=".643" fill="#fff" transform="translate(93.262 3.812)"/></g><g data-name="Group 3"><rect data-name="Rectangle 3" width="6.876" height="6.876" rx=".643" transform="translate(112.732 37.362)" fill="#fff"/></g><g data-name="Group 4"><path data-name="Rectangle 4" d="M141.511 42.939h5.59a.643.643 0 01.643.643v5.59a.643.643 0 01-.643.643h-5.591a.642.642 0 01-.642-.642v-5.591a.643.643 0 01.643-.643z" fill="#fff"/></g><g data-name="Group 5"><rect data-name="Rectangle 5" width="6.876" height="6.876" rx=".643" transform="translate(167.027 43.513)" fill="#fff"/></g><g data-name="Group 6"><rect data-name="Rectangle 6" width="6.876" height="6.876" rx=".643" transform="translate(155.426 66.658)" fill="#fff"/></g><g data-name="Group 7"><rect data-name="Rectangle 7" width="6.876" height="6.876" rx=".643" fill="#fff" transform="translate(132.48 72.337)"/></g><g data-name="Group 8"><path data-name="Rectangle 8" d="M103.441 83.181h5.59a.643.643 0 01.643.643v5.59a.643.643 0 01-.643.643h-5.589a.644.644 0 01-.644-.643v-5.59a.643.643 0 01.643-.643z" fill="#fff"/></g><g data-name="Group 9"><rect data-name="Rectangle 9" width="6.877" height="6.876" rx=".643" fill="#fff" transform="translate(76.762 42.457)"/></g><g data-name="Group 10"><rect data-name="Rectangle 10" width="6.876" height="6.876" rx=".643" fill="#fff" transform="translate(63.985 107.137)"/></g><g data-name="Group 11"><rect data-name="Rectangle 11" width="6.876" height="6.876" rx=".643" fill="#fff" transform="translate(0 44.071)"/></g><g data-name="Group 12" fill="#fff"><path data-name="Path 1" d="M137.698 43.926l-14.916-2.956v2.282l14.915 2.956v-2.211c-.003-.024 0-.047.001-.071z"/><path data-name="Path 2" d="M150.918 47.638l12.936.276v-2.24l-12.936-.276z"/><path data-name="Path 3" d="M113.632 34.196l-12.211-21.042a4.208 4.208 0 01-2.183.7l12.211 21.042a4.208 4.208 0 012.183-.7z"/><path data-name="Path 4" d="M86.812 43.828v2.262l22.745-3.221v-2.261z"/><path data-name="Path 5" d="M168.086 53.563a4.211 4.211 0 01-1.952-.479l-5.21 10.4h.321a4.214 4.214 0 011.945.475l5.208-10.4z"/><path data-name="Path 6" d="M113.79 47.412c-.067 0-.131-.007-.2-.01l-7.07 32.6h2.093c.066 0 .131.007.2.01l7.068-32.6z"/><path data-name="Path 7" d="M152.272 72.882a4.122 4.122 0 01-.021-.4v-1.9l-9.744 2.411c.012.133.021.268.021.4v1.9z"/><path data-name="Path 8" d="M99.625 84.239a4.222 4.222 0 01.211-1.317l-9.217-3.594 5.028-7.2 5.609 8.773a4.2 4.2 0 012.1-.867l-6.324-9.893 15.939-22.814a4.212 4.212 0 01-2.02-1.018L95.729 68.1 85.183 51.6a4.209 4.209 0 01-2.1.867l11.262 17.616-5.869 8.4-12.6-4.913 4.162-21.072h-2.281l-4 20.249-10.22-3.985 13.019-16.456a4.244 4.244 0 01-1.887-1.225L61.347 67.917l-13.228-5.158 2.536-15.1 22.93-.5v-2.24l-22.552.491 3.017-17.962 11.889-5.259 9.7 17.705a4.21 4.21 0 012.183-.61h.035l-9.859-18 8.9-3.935 11.355 7.164-6.4 14.775h.735a4.22 4.22 0 011.573.305l6.011-13.87 19.418 12.25a4.207 4.207 0 01.846-2.113L91.067 23.639l4.237-9.778h-.985a4.222 4.222 0 01-1.358-.226l-3.814 8.794-9.789-6.176 11.093-4.907a4.209 4.209 0 01-.366-1.717V9.06l-13.009 5.753-13.541-8.544a4.207 4.207 0 01-.847 2.113l11.922 7.522-7.695 3.4-5.4-9.87a4.21 4.21 0 01-2.182.611h-.036l5.568 10.168L54.498 24.8l2.478-14.752h-2.27l-2.66 15.837-42.049 18.6a4.28 4.28 0 01.054.645v4.76a4.182 4.182 0 01-.021.421l35.583 13.873-4.006 23.851h2.271l3.866-23.019 12.154 4.738-14.617 18.475a4.239 4.239 0 011.886 1.225L62.08 70.6l11.233 4.38-5.725 28.979h2.282l5.563-28.156 11.721 4.57-16.533 23.664a4.21 4.21 0 012.02 1.018L89.3 81.21l10.325 4.025zM51.601 28.532l-2.843 16.927-37.257.809zm-5.61 33.4L11.567 48.507l36.813-.8z"/><path data-name="Path 9" d="M147.039 52.971l6.956 11.331a4.222 4.222 0 012.139-.8l-6.954-11.33a4.2 4.2 0 01-2.141.799z"/><path data-name="Path 10" d="M133.47 69.171l-3.434-6.08 9.984-10.554a4.245 4.245 0 01-1.663-1.5l-9.473 10.014-8.072-14.3a4.2 4.2 0 01-2.2.658l8.661 15.34-16.757 17.713a4.239 4.239 0 011.662 1.5l16.247-17.175 2.844 5.036a4.209 4.209 0 012.201-.652z"/><path data-name="Path 11" d="M61.639 105.687l-13.417-8.285a4.185 4.185 0 01-.809 2.132l13.417 8.286a4.206 4.206 0 01.809-2.133z"/><path data-name="Path 12" d="M138.298 69.164a4.208 4.208 0 01.655.056l4.63-16.231h-1.658a4.2 4.2 0 01-.655-.056l-4.63 16.231z"/></g><g data-name="Group 13"><rect data-name="Rectangle 12" width="6.876" height="6.876" rx=".643" transform="translate(38.192 91.208)"/></g></g></svg>