<svg xmlns="http://www.w3.org/2000/svg" width="120" height="24.989" viewBox="0 0 120 24.989"><g data-name="Group 46"><g data-name="Group 14"><path data-name="Path 13" d="M.696 24.468a.154.154 0 01-.169-.156v-2.686a.154.154 0 01.169-.157h1.756c.8 0 .963.434.963.8v.521c0 .364-.167.8-.963.8H1.176v.726a.153.153 0 01-.167.156zm1.756-1.435c.313 0 .313-.184.313-.245v-.521c0-.06 0-.245-.313-.245H1.176v1.011z"/></g><g data-name="Group 15"><path data-name="Path 14" d="M5.878 24.508a.155.155 0 01-.168-.156v-.24a.153.153 0 01.168-.156h.145a.379.379 0 00.37-.224L5.17 21.675a.134.134 0 01-.007-.137.147.147 0 01.138-.069h.337a.207.207 0 01.2.107l.889 1.537.821-1.533a.205.205 0 01.2-.111h.337a.145.145 0 01.133.063.133.133 0 010 .135l-1.157 2.11a1.161 1.161 0 01-1.046.731z"/></g><g data-name="Group 16"><path data-name="Path 15" d="M10.942 24.508c-.8 0-.962-.434-.962-.8v-1.483c0-.363.167-.8.962-.8h1.107c.8 0 .962.434.962.8v.16a.153.153 0 01-.168.156h-.313a.154.154 0 01-.168-.156v-.16c0-.061 0-.245-.313-.245h-1.107c-.313 0-.313.184-.313.245v1.483c0 .061 0 .245.313.245h1.107c.313 0 .313-.185.313-.245v-.16a.153.153 0 01.168-.155h.313a.153.153 0 01.168.155v.16c0 .364-.167.8-.962.8z"/></g><g data-name="Group 17"><path data-name="Path 16" d="M16.09 24.508c-.795 0-.962-.434-.962-.8v-1.483c0-.363.167-.8.962-.8h1.107c.8 0 .963.434.963.8v.16a.154.154 0 01-.168.156h-.313a.153.153 0 01-.167-.156v-.16c0-.061 0-.245-.314-.245H16.09c-.313 0-.313.184-.313.245v1.483c0 .061 0 .245.313.245h1.107c.314 0 .314-.185.314-.245v-.16a.153.153 0 01.167-.155h.313a.153.153 0 01.168.155v.16c0 .364-.167.8-.963.8z"/></g><g data-name="Group 18"><path data-name="Path 17" d="M22.733 24.468a.209.209 0 01-.2-.107l-.764-1.176h-.79v1.127a.154.154 0 01-.168.156h-.319a.153.153 0 01-.168-.156v-2.686a.153.153 0 01.168-.157h.313a.154.154 0 01.168.157v1.006h.767l.693-1.059a.208.208 0 01.2-.1h.337a.145.145 0 01.137.069.129.129 0 01-.007.137l-.809 1.214.9 1.37a.137.137 0 01.01.141.147.147 0 01-.138.068z"/></g><g data-name="Group 19"><path data-name="Path 18" d="M27.565 24.468a.207.207 0 01-.207-.115l-.265-.607H25.73l-.264.6a.208.208 0 01-.208.118h-.337a.142.142 0 01-.132-.063.132.132 0 010-.134l1.251-2.686a.21.21 0 01.207-.116h.337a.206.206 0 01.2.107l1.256 2.7a.136.136 0 010 .134.146.146 0 01-.133.063zm-.725-1.275l-.43-.972-.43.972z"/></g><g data-name="Group 20"><path data-name="Path 19" d="M32.233 24.468a.154.154 0 01-.168-.156v-.807h-1.032l-.549.858a.2.2 0 01-.2.1h-.337a.146.146 0 01-.138-.068.131.131 0 01.008-.137l.552-.831a.721.721 0 01-.493-.723v-.441c0-.363.167-.8.962-.8h1.708a.154.154 0 01.168.157v2.686a.154.154 0 01-.168.156zm-1.4-2.446c-.313 0-.313.185-.313.245v.441c0 .06 0 .245.313.245h1.228v-.927z"/></g><g data-name="Group 21"><path data-name="Path 20" d="M39.93 24.468a.209.209 0 01-.2-.107l-.764-1.176h-.79v1.127a.154.154 0 01-.168.156h-.313a.154.154 0 01-.169-.156v-2.686a.154.154 0 01.169-.157h.313a.154.154 0 01.168.157v1.006h.767l.693-1.059a.208.208 0 01.2-.1h.337a.148.148 0 01.138.069.133.133 0 01-.008.137l-.809 1.214.9 1.37a.137.137 0 01.01.141.148.148 0 01-.138.068z"/></g><g data-name="Group 22"><path data-name="Path 21" d="M42.562 24.468a.153.153 0 01-.167-.156v-2.686a.153.153 0 01.167-.157h1.756c.8 0 .962.434.962.8v.521c0 .364-.166.8-.962.8h-1.275v.726a.154.154 0 01-.168.156zm1.756-1.435c.313 0 .313-.184.313-.245v-.521c0-.06 0-.245-.313-.245h-1.275v1.011z"/></g><g data-name="Group 23"><path data-name="Path 22" d="M47.617 24.468a.154.154 0 01-.169-.156v-2.686a.154.154 0 01.169-.16h2.405a.154.154 0 01.168.157v.24a.151.151 0 01-.163.156h-1.93v.651h1.492a.153.153 0 01.167.156v.24a.151.151 0 01-.163.156h-1.5v.69h1.973a.154.154 0 01.168.156v.241a.151.151 0 01-.163.156z"/></g><g data-name="Group 24"><path data-name="Path 23" d="M55.678 24.468a.154.154 0 01-.169-.156v-1.705l-1 1.753a.225.225 0 01-.228.108h-.144a.226.226 0 01-.227-.106l-1-1.755v1.705a.154.154 0 01-.168.156h-.313a.154.154 0 01-.168-.156v-2.686a.154.154 0 01.168-.157h.361a.224.224 0 01.226.107l1.193 2.1 1.192-2.1a.226.226 0 01.228-.109h.361a.154.154 0 01.168.157v2.686a.154.154 0 01-.168.156z"/></g><g data-name="Group 25"><path data-name="Path 24" d="M60.875 24.468a.152.152 0 01-.168-.152v-1.09h-1.588v1.087a.153.153 0 01-.167.156h-.313a.154.154 0 01-.168-.156v-2.687a.154.154 0 01.168-.157h.313a.154.154 0 01.167.157v1.047h1.589v-1.047a.154.154 0 01.168-.157h.313a.154.154 0 01.168.157v2.686a.154.154 0 01-.168.156z"/></g><g data-name="Group 26"><path data-name="Path 25" d="M66.17 24.468a.154.154 0 01-.168-.156V22.39l-1.586 1.982a.253.253 0 01-.219.1h-.36a.151.151 0 01-.169-.156v-2.69a.154.154 0 01.169-.157h.313a.153.153 0 01.167.157v1.922l1.585-1.982a.253.253 0 01.22-.1h.361a.153.153 0 01.167.157v2.686a.153.153 0 01-.167.156z"/></g><g data-name="Group 27"><path data-name="Path 26" d="M69.131 24.468a.154.154 0 01-.169-.156v-2.686a.155.155 0 01.169-.16h2.406a.154.154 0 01.168.157v.24a.152.152 0 01-.164.156h-1.93v.651h1.492a.153.153 0 01.167.156v.24a.151.151 0 01-.163.156h-1.5v.69h1.973a.154.154 0 01.169.156v.241a.151.151 0 01-.164.156z"/></g><g data-name="Group 28"><path data-name="Path 27" d="M73.943 24.468a.154.154 0 01-.168-.156v-2.686a.152.152 0 01.163-.157h1.569c.8 0 .962.434.962.8v.081a.573.573 0 01-.222.471.621.621 0 01.414.571v.281c0 .364-.166.8-.962.8zm1.756-.553c.313 0 .313-.184.313-.245v-.281c0-.06 0-.245-.313-.245h-1.275v.771zm-.192-1.323c.313 0 .313-.185.313-.245v-.081c0-.06 0-.245-.313-.245h-1.083v.57z"/></g><g data-name="Group 29"><path data-name="Path 28" d="M81.194 24.468a.209.209 0 01-.207-.114l-.264-.608h-1.367l-.264.6a.207.207 0 01-.207.118h-.337a.144.144 0 01-.133-.063.134.134 0 010-.135l1.251-2.685a.213.213 0 01.207-.116h.337a.205.205 0 01.2.107l1.257 2.7a.132.132 0 010 .134.143.143 0 01-.133.063zm-.724-1.275l-.431-.972-.43.972z"/></g><g data-name="Group 30"><path data-name="Path 29" d="M85.86 24.468a.154.154 0 01-.168-.156v-.807h-1.031l-.549.858a.206.206 0 01-.2.1h-.337a.145.145 0 01-.138-.068.134.134 0 01.007-.138l.552-.831a.721.721 0 01-.493-.723v-.441c0-.363.167-.8.961-.8h1.709a.154.154 0 01.167.157v2.686a.153.153 0 01-.167.156zm-1.4-2.446c-.313 0-.313.185-.313.245v.441c0 .06 0 .245.313.245h1.237v-.927z"/></g><g data-name="Group 31"><path data-name="Path 30" d="M93.704 24.989a.153.153 0 01-.168-.156v-.365h-2.214v.365a.153.153 0 01-.168.156h-.313a.153.153 0 01-.168-.156v-.762a.154.154 0 01.168-.156h.191l.607-2.314a.182.182 0 01.188-.132h1.829a.154.154 0 01.168.156v2.29h.193a.153.153 0 01.167.156v.762a.153.153 0 01-.167.156zm-.529-1.074v-1.889h-.985l-.5 1.893z"/></g><g data-name="Group 32"><path data-name="Path 31" d="M97.075 24.508c-.8 0-.962-.434-.962-.8v-1.483c0-.363.166-.8.962-.8h1.2c.8 0 .962.434.962.8v1.483c0 .364-.167.8-.962.8zm0-2.526c-.313 0-.313.184-.313.245v1.483c0 .061 0 .245.313.245h1.2c.313 0 .313-.185.313-.245v-1.483c0-.061 0-.245-.313-.245z"/></g><g data-name="Group 33"><path data-name="Path 32" d="M101.189 24.508a.155.155 0 01-.168-.156v-.24a.153.153 0 01.168-.156h.12a.262.262 0 00.292-.23l.554-2.125c.012-.048.056-.132.213-.132h1.809a.157.157 0 01.164.157v2.686a.154.154 0 01-.168.156h-.313a.154.154 0 01-.168-.156v-2.286h-.985l-.462 1.753a.852.852 0 01-.935.733z"/></g><g data-name="Group 34"><path data-name="Path 33" d="M109.154 24.468a.154.154 0 01-.168-.156V22.39l-1.585 1.982a.252.252 0 01-.219.1h-.361a.151.151 0 01-.168-.156v-2.69a.154.154 0 01.168-.157h.313a.154.154 0 01.168.157v1.922l1.585-1.982a.251.251 0 01.219-.1h.36a.154.154 0 01.169.157v2.686a.154.154 0 01-.169.156z"/></g><g data-name="Group 35"><path data-name="Path 34" d="M114.352 24.468a.152.152 0 01-.168-.152v-1.09h-1.589v1.087a.154.154 0 01-.168.156h-.313a.154.154 0 01-.169-.156v-2.687a.154.154 0 01.169-.157h.313a.154.154 0 01.168.157v1.047h1.589v-1.047a.154.154 0 01.168-.157h.313a.154.154 0 01.168.157v2.686a.154.154 0 01-.168.156z"/></g><g data-name="Group 36"><path data-name="Path 35" d="M119.511 24.468a.208.208 0 01-.207-.115l-.265-.607h-1.365l-.264.6a.209.209 0 01-.208.118h-.337a.144.144 0 01-.133-.063.134.134 0 010-.134l1.251-2.686a.21.21 0 01.207-.116h.337a.206.206 0 01.2.107l1.256 2.7a.133.133 0 010 .134.144.144 0 01-.133.063zm-.725-1.275l-.43-.972-.43.972z"/></g><g data-name="Group 37"><path data-name="Path 36" d="M12.935 12.275c-.518 0-.574-.312-.574-.446V2.991l-8.975 8.974a1.136 1.136 0 01-.9.311H.575c-.474 0-.575-.242-.575-.446V.447C0 .312.056 0 .575 0h1.656c.517 0 .574.312.574.447v8.837L11.78.31a1.135 1.135 0 01.9-.311h1.911c.518 0 .574.312.574.447v11.382c0 .134-.056.446-.574.446z"/></g><g data-name="Group 38"><path data-name="Path 37" d="M24.147 12.275c-.518 0-.574-.312-.574-.446V1.91h-5.415c-.519 0-.575-.313-.575-.447V.445c0-.135.056-.447.575-.447h13.634c.519 0 .575.312.575.447v1.018c0 .134-.056.447-.575.447h-5.417v9.916c0 .134-.056.446-.574.446z"/></g><g data-name="Group 39"><path data-name="Path 38" d="M52.311 12.275a.844.844 0 01-.791-.332l-4.143-5.1h-4.686v4.99c0 .134-.056.446-.575.446H40.46c-.518 0-.574-.312-.574-.446V.447c0-.135.056-.447.574-.447h1.651c.518 0 .575.312.575.447v4.48h4.559l3.765-4.6a.841.841 0 01.786-.325h1.784c.243 0 .4.068.467.2a.332.332 0 01-.058.361L49.625 5.8l4.869 5.908a.335.335 0 01.063.368c-.066.133-.223.2-.467.2z"/></g><g data-name="Group 40"><path data-name="Path 39" d="M58.601 12.275c-.518 0-.574-.312-.574-.446V.447c0-.135.056-.447.574-.447h9.3c3.949 0 4.779 1.721 4.779 3.165v2.209c0 1.443-.83 3.164-4.779 3.164h-7.072v3.291c0 .134-.056.446-.574.446zm9.3-5.65c.9 0 1.974-.218 1.974-1.252V3.164c0-1.035-1.074-1.252-1.974-1.252h-7.072v4.713z"/></g><g data-name="Group 41"><path data-name="Path 40" d="M93.004 12.275c-.517 0-.573-.312-.573-.446V.447c0-.135.056-.447.573-.447h1.658c.517 0 .573.312.573.447v11.382c0 .134-.056.446-.573.446zm-15.8 0c-.518 0-.574-.312-.574-.446V.447c0-.135.056-.447.574-.447h1.657c.518 0 .574.312.574.447v3.29h5.8c3.95 0 4.78 1.721 4.78 3.165V9.11c0 1.444-.83 3.164-4.78 3.164zm8.028-1.912c.9 0 1.975-.217 1.975-1.252V6.902c0-1.034-1.074-1.252-1.975-1.252h-5.8v4.713z"/></g><g data-name="Group 42"><path data-name="Path 41" d="M117.724 12.275c-.518 0-.575-.312-.575-.446V3.671l-5.9 8.27c-.193.258-.407.335-.921.335h-.765c-.513 0-.727-.077-.918-.332l-5.9-8.273v8.158c0 .134-.056.446-.574.446h-1.656c-.518 0-.574-.312-.574-.446V.447c0-.135.056-.447.574-.447h1.911c.513 0 .727.077.918.332l6.6 9.284 6.6-9.281c.193-.258.408-.335.921-.335h1.911c.518 0 .574.312.574.447v11.382c0 .134-.056.446-.574.446z"/></g></g></svg>