<svg xmlns="http://www.w3.org/2000/svg" width="45.954" height="39.67" viewBox="0 0 45.954 39.67"><path data-name="Path 7238" d="M45.958 17.869h-6.973a.769.769 0 01-.768-.768v-.2h5.091a2.134 2.134 0 002.131-2.131V2.131A2.134 2.134 0 0043.308 0h-17.7a2.133 2.133 0 00-2.131 2.131v12.64a2.133 2.133 0 002.131 2.131h5.539v.2a.769.769 0 01-.769.768h-8.561v-2.488a2.957 2.957 0 00-2.954-2.954h-7.7a2.957 2.957 0 00-2.954 2.954v2.487H.003v2.246h2.584v18.432h2.246v-9.82h3.376v2.69h5.441v6.007h-2.465v2.246h7.595v-2.246h-2.884v-6.007h5.921v-2.69H40.98v9.82h2.246V20.115h2.732zm-2.77-15.623v8.913H25.719V2.246zM25.719 13.405h17.469v1.25H25.719zm7.669 3.7v-.2h2.578v.2a2.977 2.977 0 00.111.768h-2.8a3.016 3.016 0 00.112-.772zm-28.559 9.38v-6.37h3.376v6.366zm14.737 2.69H10.45V15.382a.709.709 0 01.708-.709h7.7a.709.709 0 01.708.709zm21.409-2.69H21.813v-6.37h19.163z" fill="#0095ce"/></svg>