<svg xmlns="http://www.w3.org/2000/svg" width="47.422" height="33.173" viewBox="0 0 47.422 33.173"><path data-name="Path 7239" d="M44.678 11.143H26.095a2.748 2.748 0 00-2.746 2.744v4.835a8.715 8.715 0 00-2.193-.565 5.662 5.662 0 001.453-3.784V2.092A2.094 2.094 0 0020.518 0h-10.13a4.735 4.735 0 00-4.73 4.73v9.642a5.664 5.664 0 001.525 3.864A8.8 8.8 0 00-.005 26.87v6.3h46.154v-2.242h-5.754a.971.971 0 01-.97-.971v-.342h5.25a2.747 2.747 0 002.744-2.744V13.887a2.747 2.747 0 00-2.741-2.744zm-19.083 2.744a.5.5 0 01.5-.5h18.584a.5.5 0 01.5.5v9.611h-16.99a8.829 8.829 0 00-2.592-3.456zM7.903 9.92a9.893 9.893 0 003.16.539 8.647 8.647 0 002.246-.293 18.385 18.385 0 003.786-1.516 3.813 3.813 0 011.949-.665c.694.084 1.15.826 1.318 1.15v5.233a3.449 3.449 0 01-3.446 3.446h-5.568a3.451 3.451 0 01-3.447-3.446zm9.248 10.408l-2.731 3.491-2.8-3.491zM10.387 2.25h9.975v3.833a3.33 3.33 0 00-1.047-.319 5.517 5.517 0 00-3.232.889 16.217 16.217 0 01-3.358 1.348 7.433 7.433 0 01-4.823-.48V4.73a2.487 2.487 0 012.485-2.48zm14.581 28.682H2.246V26.87a6.548 6.548 0 016.5-6.539l5.7 7.105 5.559-7.107h.074a6.548 6.548 0 016.54 6.541v4.058zm3.893 0v-1.318h2.98v.342a.973.973 0 01-.971.971zm8.487 0H33.92a3.19 3.19 0 00.166-.971v-.342h3.1v.342a3.164 3.164 0 00.162.967zm7.33-3.559H28.861v-.5a8.806 8.806 0 00-.08-1.126h16.4v1.123a.5.5 0 01-.503.499z" fill="#0095ce"/></svg>