<svg xmlns="http://www.w3.org/2000/svg" width="44.093" height="39.457" viewBox="0 0 44.093 39.457"><path data-name="Path 7237" d="M41.72 19.794h-2.462a3.012 3.012 0 00-2.969-2.55h-1.827v-2.192l.867.715a2.047 2.047 0 002.773-.1l1.306-1.306a2.04 2.04 0 00.121-2.754L35.277 6.45a1.983 1.983 0 00-.162-2.614l-2.76-2.761a3.669 3.669 0 00-5.188 0l-2.35 2.351a3.668 3.668 0 000 5.188l2.76 2.761a1.972 1.972 0 002.615.163l2.025 1.668v4.042H30.39a3.014 3.014 0 00-2.969 2.55H16.804a3.013 3.013 0 00-2.969-2.55h-1.827v-4.046l2.025-1.669a1.972 1.972 0 002.615-.163l2.76-2.76a3.669 3.669 0 000-5.188l-2.347-2.347a3.668 3.668 0 00-5.188 0l-2.76 2.76a1.972 1.972 0 00-.163 2.616l-4.234 5.136a2.047 2.047 0 00.1 2.774l1.305 1.305a2.05 2.05 0 001.449.6 1.99 1.99 0 001.305-.479l.886-.73v2.19H7.934a3.014 3.014 0 00-2.969 2.55H2.372a2.376 2.376 0 00-2.373 2.372v1.726a2.368 2.368 0 002.134 2.348v11.145a2.071 2.071 0 002.069 2.069h35.687a2.072 2.072 0 002.07-2.069V26.24a2.368 2.368 0 002.133-2.348v-1.726a2.375 2.375 0 00-2.372-2.372zm-5.073-5.85l-4.841-3.99 1.889-1.889 3.991 4.841zM26.405 7.021a1.422 1.422 0 010-2.011l2.347-2.347a1.457 1.457 0 012.012 0l2.58 2.579-1.073 1.073-2.213 2.211-1.073 1.072zM13.462 2.662a1.457 1.457 0 012.012 0l2.347 2.347a1.425 1.425 0 010 2.012l-2.58 2.58-1.073-1.075-2.213-2.21-1.073-1.073zM7.578 13.944l-1.039-1.038 3.99-4.841.944.944.945.946zm22.812 5.544h5.9a.77.77 0 01.614.3h-7.126a.767.767 0 01.612-.299zm-22.454 0h5.9a.77.77 0 01.614.3H7.324a.767.767 0 01.611-.299zm-5.69 2.677a.127.127 0 01.128-.127h39.347a.127.127 0 01.127.127v1.726a.127.127 0 01-.127.127H2.373a.128.128 0 01-.128-.127zM39.714 37.21H4.38V26.265h35.334z" fill="#0095ce"/></svg>