<svg xmlns="http://www.w3.org/2000/svg" width="17.462" height="20.049" viewBox="0 0 17.462 20.049"><path data-name="Path 7409" d="M12.754 10.887a3.762 3.762 0 00.959-2.5V1.392a1.4 1.4 0 00-1.4-1.4h-5.77a3.158 3.158 0 00-3.154 3.154v5.237a3.769 3.769 0 001 2.545 5.35 5.35 0 00-4.392 5.256v3.857H17.46v-3.857a5.351 5.351 0 00-4.706-5.297zM4.893 6.132a5.984 5.984 0 001.821.295 5.264 5.264 0 001.364-.178 11.174 11.174 0 002.287-.913 2.235 2.235 0 011.125-.392c.368.045.62.44.722.631v2.816a2.3 2.3 0 01-2.295 2.295H7.188a2.3 2.3 0 01-2.3-2.295zm5.312 6.214l-1.481 1.893-1.518-1.893zM6.547 1.501h5.665v2.106a2.023 2.023 0 00-.542-.151 3.358 3.358 0 00-1.982.541 9.668 9.668 0 01-2 .8 4.349 4.349 0 01-2.8-.266V3.152A1.656 1.656 0 016.547 1.5zm9.415 17.048H1.5v-2.357a3.847 3.847 0 013.787-3.84l3.452 4.3 3.371-4.31h.007a3.851 3.851 0 013.846 3.846z" fill="#0095ce"/></svg>