<svg xmlns="http://www.w3.org/2000/svg" width="17.403" height="10.187" viewBox="0 0 17.403 10.187"><path data-name="Path 32" d="M16.667 7.752a9.367 9.367 0 00-1.24-1.24 3.35 3.35 0 00-.465-.413c-.413-.413-.465-.568-.1-1.034a11.931 11.931 0 01.724-.982c.207-.31.465-.568.672-.879l.052-.052a5.948 5.948 0 001.034-1.86 1 1 0 000-.672.808.808 0 00-.62-.31h-2.946a.838.838 0 00-.827.568 11.1 11.1 0 01-.517 1.137 8.155 8.155 0 01-1.55 2.377l-.052.052c-.1.1-.155.207-.258.207h-.052c-.155-.052-.258-.413-.258-.568V.93c-.052-.517-.207-.827-.775-.93H6.647a1.1 1.1 0 00-.93.465.446.446 0 00-.155.413c.052.207.259.207.362.258a.677.677 0 01.62.672 9.891 9.891 0 01.052 2.171 1.86 1.86 0 01-.1.568c0 .052-.052.155-.1.155a.4.4 0 01-.155-.052 3.371 3.371 0 01-.568-.62 14.926 14.926 0 01-1.6-3 1 1 0 00-.879-.672H.75a.711.711 0 00-.672.31.873.873 0 000 .724A32.2 32.2 0 003.23 7.025a8.292 8.292 0 002.429 2.274 6.614 6.614 0 003.256.827h.413c.724-.052.982-.31 1.034-.982a2.313 2.313 0 01.207-1.034c.1-.207.207-.207.258-.207a.872.872 0 01.258.1 2.955 2.955 0 01.413.362 2.24 2.24 0 01.31.362 9.27 9.27 0 00.672.724 2.167 2.167 0 001.757.723h2.481a.636.636 0 00.569-.362.987.987 0 000-.93 2.863 2.863 0 00-.62-1.13z" fill="#0095ce"/></svg>