<svg xmlns="http://www.w3.org/2000/svg" width="43.089" height="33.029" viewBox="0 0 43.089 33.029">
  <path id="Path_7258" data-name="Path 7258" d="M127.225,106.4h-2.2v-2.642a1.987,1.987,0,0,0-1.985-1.985H116.6a1.987,1.987,0,0,0-1.985,1.985V106.4h-2.2a3.036,3.036,0,0,0-2.763,2.161,8.653,8.653,0,0,0-1.443-.3,4.879,4.879,0,0,0,1.3-3.312V91.808a1.805,1.805,0,0,0-1.8-1.8H96.856a4.081,4.081,0,0,0-4.077,4.077v10.867a4.887,4.887,0,0,0,1.37,3.392,8.683,8.683,0,0,0-7.057,8.517v6.176h40.133a2.959,2.959,0,0,0,2.956-2.956V109.359A2.959,2.959,0,0,0,127.225,106.4ZM116.6,103.712h6.439l.05.05V106.4h-6.525Zm-4.189,4.627h14.817a1.021,1.021,0,0,1,1.02,1.02v1.448H113.314a8.718,8.718,0,0,0-1.89-1.464C111.547,108.817,111.987,108.339,112.408,108.339Zm6.467,4.4h1.882v.494h-1.882ZM94.715,99.6a9.908,9.908,0,0,0,3.335.6,8.537,8.537,0,0,0,2.218-.289,18.361,18.361,0,0,0,3.778-1.51,3.943,3.943,0,0,1,2.052-.685,2.184,2.184,0,0,1,1.467,1.277v5.957a2.975,2.975,0,0,1-2.971,2.97H97.684a2.974,2.974,0,0,1-2.97-2.97ZM104.5,110.12l-3.075,3.93-3.152-3.93ZM96.856,91.94h10.708v4.271a3.238,3.238,0,0,0-1.234-.417,5.416,5.416,0,0,0-3.157.879,16.473,16.473,0,0,1-3.407,1.367,7.684,7.684,0,0,1-5.051-.533V94.082A2.144,2.144,0,0,1,96.856,91.94ZM110.42,121.1H89.027v-4.24a6.745,6.745,0,0,1,6.737-6.738H95.8l5.652,7.048,5.512-7.048h.153a6.745,6.745,0,0,1,6.737,6.738v4.24Zm16.8,0H115.786v-4.24a8.616,8.616,0,0,0-1.041-4.116h2.2v.856a1.575,1.575,0,0,0,1.573,1.573h2.638a1.544,1.544,0,0,0,1.542-1.542v-.887h5.552v7.335A1.021,1.021,0,0,1,127.225,121.1Z" transform="translate(-87.092 -90.005)" fill="#0095ce"/>
</svg>
