<svg id="Group_359" data-name="Group 359" xmlns="http://www.w3.org/2000/svg" width="35.985" height="41.896" viewBox="0 0 35.985 41.896">
  <path id="Path_7256" data-name="Path 7256" d="M34.911,117.769l3.93-6.095a11.824,11.824,0,0,0,2.32-7.1,12.039,12.039,0,1,0-23.033,4.9h-.161l5.325,8.3c-4.2,1-6.733,2.993-6.733,5.4,0,3.451,5.4,6.053,12.565,6.053s12.565-2.6,12.565-6.053C41.688,120.777,39.125,118.769,34.911,117.769Zm-14.042-7.8a9.78,9.78,0,0,1-1.537-6.61,9.866,9.866,0,0,1,19.656,1.218,9.572,9.572,0,0,1-1.914,5.836L29.09,122.785l-7.147-11.138h.027Zm8.255,17.088c-6.439,0-10.392-2.26-10.392-3.88,0-1.16,2.032-2.7,5.814-3.448l2.785,4.341a2.085,2.085,0,0,0,1.757.961h0a2.084,2.084,0,0,0,1.757-.958l2.807-4.352c3.81.749,5.862,2.309,5.862,3.456C39.515,124.795,35.561,127.055,29.123,127.055Z" transform="translate(-11.049 -87.331)" fill="#0095ce"/>
  <path id="Path_7257" data-name="Path 7257" d="M25.578,108.331l-.352,2.049a2.037,2.037,0,0,0,2.96,2.15l1.841-.967,1.84.967a2.04,2.04,0,0,0,2.96-2.15l-.351-2.049,1.489-1.452a2.04,2.04,0,0,0-1.131-3.48l-2.057-.3-.92-1.864h0a2.029,2.029,0,0,0-1.83-1.138h0a2.027,2.027,0,0,0-1.829,1.138l-.92,1.864-2.057.3a2.04,2.04,0,0,0-1.131,3.48Zm2.081-3.09a2.043,2.043,0,0,0,1.537-1.117l.832-1.685.832,1.685A2.038,2.038,0,0,0,32.4,105.24l1.861.27-1.346,1.312a2.04,2.04,0,0,0-.588,1.807l.318,1.852-1.665-.874a2.042,2.042,0,0,0-1.9,0l-1.664.874.318-1.852a2.039,2.039,0,0,0-.587-1.806L25.8,105.51Z" transform="translate(-11.953 -88.32)" fill="#0095ce"/>
  <rect id="Rectangle_116" data-name="Rectangle 116" width="2.173" height="3.435" transform="translate(17.044 0)" fill="#0095ce"/>
  <rect id="Rectangle_117" data-name="Rectangle 117" width="3.435" height="2.173" transform="translate(28.316 8.212) rotate(-45)" fill="#0095ce"/>
  <rect id="Rectangle_118" data-name="Rectangle 118" width="2.173" height="3.434" transform="translate(29.602 25.36) rotate(-45)" fill="#0095ce"/>
  <rect id="Rectangle_119" data-name="Rectangle 119" width="3.435" height="2.173" transform="translate(32.55 15.755)" fill="#0095ce"/>
  <rect id="Rectangle_120" data-name="Rectangle 120" width="2.173" height="3.435" transform="translate(3.704 7.319) rotate(-45)" fill="#0095ce"/>
  <rect id="Rectangle_121" data-name="Rectangle 121" width="3.435" height="2.173" transform="matrix(0.707, -0.707, 0.707, 0.707, 2.417, 26.252)" fill="#0095ce"/>
  <rect id="Rectangle_122" data-name="Rectangle 122" width="3.434" height="2.173" transform="translate(0 15.755)" fill="#0095ce"/>
</svg>
