<svg id="Group_358" data-name="Group 358" xmlns="http://www.w3.org/2000/svg" width="45.551" height="38.996" viewBox="0 0 45.551 38.996">
  <path id="Path_7250" data-name="Path 7250" d="M-31.908,114.072a8.187,8.187,0,0,0-7.159-8.11v-.4a1.965,1.965,0,0,0-1.963-1.962H-57.038A1.965,1.965,0,0,0-59,105.565v16.6a3.056,3.056,0,0,0,.161.939H-60.1a2.124,2.124,0,0,0-2.122,2.122v2.457a2.124,2.124,0,0,0,2.122,2.122h22.134a2.124,2.124,0,0,0,2.121-2.122v-2.457a2.124,2.124,0,0,0-2.121-2.122h-1.261a3.065,3.065,0,0,0,.159-.923A8.188,8.188,0,0,0-31.908,114.072Zm-2.173,0a6.012,6.012,0,0,1-4.986,5.914v-1.217a4.815,4.815,0,0,0,3.786-4.7,4.815,4.815,0,0,0-3.786-4.7v-1.218A6.013,6.013,0,0,1-34.081,114.072Zm-4.986,2.429v-4.859a2.64,2.64,0,0,1,1.613,2.429A2.64,2.64,0,0,1-39.066,116.5Zm1.048,11.131-22.031.051-.051-2.406,4.117-.01c.032,0,.062.01.094.01h13.711a3.063,3.063,0,0,0,.422-.043l3.738-.009Zm-17.871-4.528a.94.94,0,0,1-.939-.939V105.776h15.589v16.391a.939.939,0,0,1-.939.939Z" transform="translate(77.459 -90.81)" fill="#0095ce"/>
  <path id="Path_7251" data-name="Path 7251" d="M-48.881,100.007l1.026-.347h1.086a1.462,1.462,0,0,0-.176-.647,3.222,3.222,0,0,1-.323-2.293,10.878,10.878,0,0,1,.78-1.551A7.364,7.364,0,0,0-45.2,91.448l-2.172.056a5.689,5.689,0,0,1-1.006,2.6,12.647,12.647,0,0,0-.933,1.883,5.312,5.312,0,0,0,.387,3.925Z" transform="translate(75.801 -89.219)" fill="#0095ce"/>
  <path id="Path_7252" data-name="Path 7252" d="M-43.2,100.007l1.026-.347h1.086a1.473,1.473,0,0,0-.176-.647,3.222,3.222,0,0,1-.324-2.293,11.065,11.065,0,0,1,.78-1.551,7.357,7.357,0,0,0,1.287-3.721L-41.7,91.5A5.689,5.689,0,0,1-42.7,94.1a12.646,12.646,0,0,0-.933,1.883,5.308,5.308,0,0,0,.387,3.925Z" transform="translate(75.058 -89.219)" fill="#0095ce"/>
  <path id="Path_7253" data-name="Path 7253" d="M-54.417,100.007l1.026-.347h1.086a1.458,1.458,0,0,0-.176-.647,3.216,3.216,0,0,1-.324-2.292,10.834,10.834,0,0,1,.78-1.551,7.371,7.371,0,0,0,1.287-3.722l-2.172.056a5.689,5.689,0,0,1-1.006,2.6,12.531,12.531,0,0,0-.933,1.884,5.311,5.311,0,0,0,.387,3.924Z" transform="translate(76.525 -89.219)" fill="#0095ce"/>
  <path id="Path_7254" data-name="Path 7254" d="M-62.821,97.35a8.475,8.475,0,0,0-8.466-8.466,8.475,8.475,0,0,0-8.465,8.466,8.472,8.472,0,0,0,7.378,8.387v4.79a3.733,3.733,0,0,0-2.655,3.562,3.746,3.746,0,0,0,3.742,3.742,3.746,3.746,0,0,0,3.742-3.742,3.733,3.733,0,0,0-2.655-3.562v-4.79A8.472,8.472,0,0,0-62.821,97.35Zm-14.758,0a6.3,6.3,0,0,1,6.292-6.293,6.3,6.3,0,0,1,6.293,6.293,6.3,6.3,0,0,1-6.293,6.292A6.3,6.3,0,0,1-77.579,97.35Zm7.861,16.738a1.57,1.57,0,0,1-1.569,1.569,1.571,1.571,0,0,1-1.569-1.569,1.57,1.57,0,0,1,1.569-1.569A1.57,1.57,0,0,1-69.718,114.088Z" transform="translate(79.752 -88.884)" fill="#0095ce"/>
  <path id="Path_7255" data-name="Path 7255" d="M-67.463,97.357h-1.569V95.638H-71.2v3.892h3.742Z" transform="translate(78.634 -89.768)" fill="#0095ce"/>
</svg>
