<svg xmlns="http://www.w3.org/2000/svg" width="88.792" height="69.413" viewBox="0 0 88.792 69.413">
  <g id="Group_367" data-name="Group 367" transform="translate(0 0)">
    <rect id="Rectangle_133" data-name="Rectangle 133" width="3.666" height="3.925" rx="1.375" transform="translate(9.868 10.428)" fill="#0095ce"/>
    <rect id="Rectangle_134" data-name="Rectangle 134" width="3.666" height="3.925" rx="1.375" transform="translate(15.752 10.428)" fill="#0095ce"/>
    <rect id="Rectangle_135" data-name="Rectangle 135" width="3.665" height="3.925" rx="1.375" transform="translate(21.636 10.428)" fill="#0095ce"/>
    <path id="Path_7280" data-name="Path 7280" d="M-52.9,329.487a.412.412,0,0,1,.154.105,1.69,1.69,0,0,1,.176.941V334.7a5.4,5.4,0,0,0,.512,2.827,2.21,2.21,0,0,0,1.163.959,6.512,6.512,0,0,0,1.725.171c.181,0,.551-.008,1.107-.024l.257-.007v-2.091l-.25-.015c-.675-.036-.854-.19-.9-.256s-.177-.377-.177-1.563v-2.96a8.32,8.32,0,0,0-.238-2.786,1.76,1.76,0,0,0-.827-.825,1.765,1.765,0,0,0,.834-.828,8.474,8.474,0,0,0,.232-2.779v-2.639c0-1.2.128-1.5.182-1.581s.226-.22.887-.239l.256-.007v-2.092l-.252-.013c-.51-.023-.885-.036-1.125-.036a3.6,3.6,0,0,0-2.631.765c-.509.513-.757,1.561-.757,3.2v2.746a6.368,6.368,0,0,1-.148,2.026c-.024.046-.154.2-.78.219l-.256.007v1.292A1.431,1.431,0,0,0-52.9,329.487Z" transform="translate(78.927 -287.678)" fill="#0095ce"/>
    <path id="Path_7281" data-name="Path 7281" d="M-20.673,338.655a4.9,4.9,0,0,0,2.017-.315,2.088,2.088,0,0,0,1.046-1.191A7.1,7.1,0,0,0-17.3,334.7v-3.065c0-.9.012-1.47.035-1.69a.592.592,0,0,1,.2-.4,1.059,1.059,0,0,1,.69-.169l.259,0v-1.286a1.436,1.436,0,0,0-.863-1.318.37.37,0,0,1-.144-.1,1.687,1.687,0,0,1-.163-.955l-.013-3.831a6.3,6.3,0,0,0-.364-2.553,2.359,2.359,0,0,0-.982-1.1,4.733,4.733,0,0,0-2.066-.315c-.175,0-.542.013-1.1.036l-.253.012v2.093l.257.007c.668.019.844.174.889.24a3.489,3.489,0,0,1,.18,1.58v2.639a8.266,8.266,0,0,0,.239,2.786,1.749,1.749,0,0,0,.827.824,1.776,1.776,0,0,0-.835.831,8.471,8.471,0,0,0-.232,2.778v2.96c0,1.229-.135,1.51-.176,1.568s-.225.214-.9.251l-.25.015v2.091l.256.007Q-21.018,338.655-20.673,338.655Z" transform="translate(80.637 -287.678)" fill="#0095ce"/>
    <path id="Path_7282" data-name="Path 7282" d="M5.708,289.226h-77.9a5.452,5.452,0,0,0-5.446,5.447v58.519a5.452,5.452,0,0,0,5.446,5.447h77.9a5.453,5.453,0,0,0,5.447-5.447V294.673A5.453,5.453,0,0,0,5.708,289.226Zm1.231,63.966a1.233,1.233,0,0,1-1.231,1.231h-77.9a1.232,1.232,0,0,1-1.23-1.231V294.673a1.232,1.232,0,0,1,1.23-1.231h77.9a1.232,1.232,0,0,1,1.231,1.231Z" transform="translate(77.637 -289.226)" fill="#0095ce"/>
    <path id="Path_7283" data-name="Path 7283" d="M-1.362,309.272h-64.58a4.087,4.087,0,0,0-4.082,4.083v30.791a4.086,4.086,0,0,0,4.082,4.081h64.58a4.087,4.087,0,0,0,4.082-4.081V313.355A4.088,4.088,0,0,0-1.362,309.272ZM-1.5,344.011H-65.808V313.488H-1.5Z" transform="translate(78.048 -288.144)" fill="#0095ce"/>
    <path id="Path_7284" data-name="Path 7284" d="M-46.764,303.045H-46c.042,0,.081-.009.122-.013h44.8c.04,0,.08.013.121.013h.766a1.451,1.451,0,0,0,1.45-1.449v-1.027a1.451,1.451,0,0,0-1.45-1.449H-.949c-.045,0-.087.01-.132.014H-45.865c-.044,0-.087-.014-.133-.014h-.766a1.451,1.451,0,0,0-1.449,1.449V301.6A1.451,1.451,0,0,0-46.764,303.045Z" transform="translate(79.225 -288.692)" fill="#0095ce"/>
    <path id="Path_7285" data-name="Path 7285" d="M-28.041,316.923H-31.57L-42.4,339.138h3.53Z" transform="translate(79.539 -287.731)" fill="#0095ce"/>
  </g>
</svg>
