<svg xmlns="http://www.w3.org/2000/svg" width="39.783" height="39.164" viewBox="0 0 39.783 39.164">
  <g id="Group_363" data-name="Group 363" transform="translate(0 0)">
    <path id="Path_7269" data-name="Path 7269" d="M-44.94,206.932a4.123,4.123,0,0,0,.615-2.147v-4.613a1.8,1.8,0,0,0-1.8-1.8h-3.8a3.538,3.538,0,0,0-3.534,3.534v2.876a4.129,4.129,0,0,0,.654,2.22,4.7,4.7,0,0,0-2.343,1.678,4.707,4.707,0,0,0-2.581-1.751,4.123,4.123,0,0,0,.615-2.147v-4.613a1.8,1.8,0,0,0-1.8-1.8h-3.8a3.538,3.538,0,0,0-3.534,3.534v2.876A4.129,4.129,0,0,0-65.6,207a4.692,4.692,0,0,0-2.117,1.4,4.689,4.689,0,0,0-2.354-1.477,4.13,4.13,0,0,0,.614-2.147v-4.613a1.8,1.8,0,0,0-1.8-1.8h-3.8a3.538,3.538,0,0,0-3.534,3.534v2.876a4.137,4.137,0,0,0,.654,2.22,4.7,4.7,0,0,0-3.276,4.463h2.317a2.4,2.4,0,0,1,2.394-2.393h5.233a2.4,2.4,0,0,1,2.393,2.393h2.317a2.4,2.4,0,0,1,2.393-2.393h5.233a2.4,2.4,0,0,1,2.394,2.393h2.77a2.4,2.4,0,0,1,2.393-2.393h5.233a2.4,2.4,0,0,1,2.394,2.393h2.317A4.705,4.705,0,0,0-44.94,206.932Zm-31.33-5.023a1.217,1.217,0,0,1,1.216-1.216h3.283v4.093a1.851,1.851,0,0,1-1.849,1.849h-.8a1.851,1.851,0,0,1-1.849-1.849Zm12.338,0a1.217,1.217,0,0,1,1.216-1.216h3.283v4.093a1.851,1.851,0,0,1-1.849,1.849h-.8a1.851,1.851,0,0,1-1.849-1.849Zm12.79,0a1.217,1.217,0,0,1,1.216-1.216h3.283v4.093a1.851,1.851,0,0,1-1.85,1.849h-.8a1.851,1.851,0,0,1-1.849-1.849Z" transform="translate(81.21 -172.304)" fill="#0095ce"/>
    <path id="Path_7270" data-name="Path 7270" d="M-69.946,194.6l2.281-.407-1.3-7.264h14.653l-1.3,7.264,2.281.407,1.369-7.671h.947v-2.317h-2.313a5.179,5.179,0,0,0-4.021-4.761,4.532,4.532,0,0,0,.759-2.51V172.13a1.882,1.882,0,0,0-1.88-1.88h-4.3a3.848,3.848,0,0,0-3.843,3.843v3.252a4.529,4.529,0,0,0,.806,2.579,5.179,5.179,0,0,0-3.756,4.692h-2.884v2.317h1.123Zm5.659-20.511a1.528,1.528,0,0,1,1.526-1.526H-58.9v4.778a2.244,2.244,0,0,1-2.241,2.241h-.9a2.244,2.244,0,0,1-2.242-2.241Zm-.107,7.95h5.915a2.852,2.852,0,0,1,2.828,2.573H-67.222A2.85,2.85,0,0,1-64.394,182.043Z" transform="translate(80.569 -170.25)" fill="#0095ce"/>
  </g>
</svg>
