<svg xmlns="http://www.w3.org/2000/svg" width="15" height="15" viewBox="0 0 15 15">
  <g id="Group_78" data-name="Group 78" transform="translate(-296.753 -1.432)">
    <path id="Path_165" data-name="Path 165" d="M725.9,16A3.965,3.965,0,0,0,728.1,18.2a5.028,5.028,0,0,0,1.811.34c.792.028,1.047.057,3.085.057s2.292,0,3.085-.057a5.563,5.563,0,0,0,1.811-.34A3.965,3.965,0,0,0,740.1,16a5.027,5.027,0,0,0,.34-1.811c.028-.792.057-1.047.057-3.085s0-2.292-.057-3.085A5.562,5.562,0,0,0,740.1,6.2,3.965,3.965,0,0,0,737.9,4a5.027,5.027,0,0,0-1.811-.34c-.792-.028-1.047-.057-3.085-.057s-2.292,0-3.085.057A5.565,5.565,0,0,0,728.1,4,3.965,3.965,0,0,0,725.9,6.2a5.029,5.029,0,0,0-.34,1.811c-.028.792-.057,1.047-.057,3.085s0,2.292.057,3.085A4.386,4.386,0,0,0,725.9,16Zm.991-7.953a4.4,4.4,0,0,1,.255-1.387,2.911,2.911,0,0,1,.566-.877,2.35,2.35,0,0,1,.877-.566,3.694,3.694,0,0,1,1.387-.255c.792-.028,1.019-.057,3.028-.057s2.236,0,3.028.057a4.395,4.395,0,0,1,1.387.255,2.911,2.911,0,0,1,.877.566,2.35,2.35,0,0,1,.566.877,3.691,3.691,0,0,1,.255,1.387c.028.792.057,1.019.057,3.028s0,2.236-.057,3.028a4.395,4.395,0,0,1-.255,1.387,2.911,2.911,0,0,1-.566.877,2.05,2.05,0,0,1-.877.566,3.693,3.693,0,0,1-1.387.255c-.792.028-1.019.057-3.028.057s-2.236,0-3.028-.057a4.4,4.4,0,0,1-1.387-.255,2.912,2.912,0,0,1-.877-.566,2.049,2.049,0,0,1-.566-.877,3.7,3.7,0,0,1-.255-1.387c-.028-.792-.057-1.019-.057-3.028C726.83,9.091,726.859,8.836,726.887,8.043Z" transform="translate(-428.747 -2.168)" fill="#0095ce"/>
    <path id="Path_166" data-name="Path 166" d="M742.055,23.809a3.655,3.655,0,1,0-3.655-3.655A3.658,3.658,0,0,0,742.055,23.809Zm0-6.046a2.392,2.392,0,1,1-2.392,2.392A2.4,2.4,0,0,1,742.055,17.763Z" transform="translate(-437.802 -11.223)" fill="#0095ce"/>
    <path id="Path_167" data-name="Path 167" d="M763.954,14.608a.954.954,0,1,0-.954-.954A.942.942,0,0,0,763.954,14.608Z" transform="translate(-455.712 -8.712)" fill="#0095ce"/>
  </g>
</svg>
