<svg xmlns="http://www.w3.org/2000/svg" width="120" height="24.989" viewBox="0 0 120 24.989">
  <g id="Group_46" data-name="Group 46" transform="translate(-160.082 -356.69)">
    <g id="Group_14" data-name="Group 14" transform="translate(160.609 378.159)">
      <path id="Path_13" data-name="Path 13" d="M161.082,393.542a.154.154,0,0,1-.169-.156V390.7a.154.154,0,0,1,.169-.157h1.756c.8,0,.963.434.963.8v.521c0,.364-.167.8-.963.8h-1.276v.726a.153.153,0,0,1-.167.156Zm1.756-1.435c.313,0,.313-.184.313-.245v-.521c0-.06,0-.245-.313-.245h-1.276v1.011Z" transform="translate(-160.913 -390.543)"/>
    </g>
    <g id="Group_15" data-name="Group 15" transform="translate(165.23 378.159)">
      <path id="Path_14" data-name="Path 14" d="M168.93,393.582a.155.155,0,0,1-.168-.156v-.24a.153.153,0,0,1,.168-.156h.145a.379.379,0,0,0,.37-.224l-1.223-2.057a.134.134,0,0,1-.007-.137.147.147,0,0,1,.138-.069h.337a.207.207,0,0,1,.2.107l.889,1.537.821-1.533a.205.205,0,0,1,.2-.111h.337a.145.145,0,0,1,.133.063.133.133,0,0,1,0,.135l-1.157,2.11a1.161,1.161,0,0,1-1.046.731Z" transform="translate(-168.2 -390.543)"/>
    </g>
    <g id="Group_16" data-name="Group 16" transform="translate(170.062 378.119)">
      <path id="Path_15" data-name="Path 15" d="M176.781,393.559c-.8,0-.962-.434-.962-.8v-1.483c0-.363.167-.8.962-.8h1.107c.8,0,.962.434.962.8v.16a.153.153,0,0,1-.168.156h-.313a.154.154,0,0,1-.168-.156v-.16c0-.061,0-.245-.313-.245h-1.107c-.313,0-.313.184-.313.245v1.483c0,.061,0,.245.313.245h1.107c.313,0,.313-.185.313-.245v-.16a.153.153,0,0,1,.168-.155h.313a.153.153,0,0,1,.168.155v.16c0,.364-.167.8-.962.8Z" transform="translate(-175.819 -390.48)"/>
    </g>
    <g id="Group_17" data-name="Group 17" transform="translate(175.211 378.119)">
      <path id="Path_16" data-name="Path 16" d="M184.9,393.559c-.795,0-.962-.434-.962-.8v-1.483c0-.363.167-.8.962-.8h1.107c.8,0,.963.434.963.8v.16a.154.154,0,0,1-.168.156h-.313a.153.153,0,0,1-.167-.156v-.16c0-.061,0-.245-.314-.245H184.9c-.313,0-.313.184-.313.245v1.483c0,.061,0,.245.313.245h1.107c.314,0,.314-.185.314-.245v-.16a.153.153,0,0,1,.167-.155h.313a.153.153,0,0,1,.168.155v.16c0,.364-.167.8-.963.8Z" transform="translate(-183.939 -390.48)"/>
    </g>
    <g id="Group_18" data-name="Group 18" transform="translate(180.41 378.159)">
      <path id="Path_17" data-name="Path 17" d="M194.541,393.542a.209.209,0,0,1-.2-.107l-.764-1.176h-.79v1.127a.154.154,0,0,1-.168.156H192.3a.153.153,0,0,1-.168-.156V390.7a.153.153,0,0,1,.168-.157h.313a.154.154,0,0,1,.168.157v1.006h.767l.693-1.059a.208.208,0,0,1,.2-.1h.337a.145.145,0,0,1,.137.069.129.129,0,0,1-.007.137l-.809,1.214.9,1.37a.137.137,0,0,1,.01.141.147.147,0,0,1-.138.068Z" transform="translate(-192.136 -390.543)"/>
    </g>
    <g id="Group_19" data-name="Group 19" transform="translate(184.849 378.159)">
      <path id="Path_18" data-name="Path 18" d="M201.935,393.542a.207.207,0,0,1-.207-.115l-.265-.607H200.1l-.264.6a.208.208,0,0,1-.208.118h-.337a.142.142,0,0,1-.132-.063.132.132,0,0,1,0-.134l1.251-2.686a.21.21,0,0,1,.207-.116h.337a.206.206,0,0,1,.2.107l1.256,2.7a.136.136,0,0,1,0,.134.146.146,0,0,1-.133.063Zm-.725-1.275-.43-.972-.43.972Z" transform="translate(-199.137 -390.543)"/>
    </g>
    <g id="Group_20" data-name="Group 20" transform="translate(189.872 378.159)">
      <path id="Path_19" data-name="Path 19" d="M209.5,393.542a.154.154,0,0,1-.168-.156v-.807H208.3l-.549.858a.2.2,0,0,1-.2.1h-.337a.146.146,0,0,1-.138-.068.131.131,0,0,1,.008-.137l.552-.831a.721.721,0,0,1-.493-.723v-.441c0-.363.167-.8.962-.8h1.708a.154.154,0,0,1,.168.157v2.686a.154.154,0,0,1-.168.156Zm-1.4-2.446c-.313,0-.313.185-.313.245v.441c0,.06,0,.245.313.245h1.228V391.1Z" transform="translate(-207.057 -390.543)"/>
    </g>
    <g id="Group_21" data-name="Group 21" transform="translate(197.606 378.159)">
      <path id="Path_20" data-name="Path 20" d="M221.658,393.542a.209.209,0,0,1-.2-.107l-.764-1.176h-.79v1.127a.154.154,0,0,1-.168.156h-.313a.154.154,0,0,1-.169-.156V390.7a.154.154,0,0,1,.169-.157h.313a.154.154,0,0,1,.168.157v1.006h.767l.693-1.059a.208.208,0,0,1,.2-.1h.337a.148.148,0,0,1,.138.069.133.133,0,0,1-.008.137l-.809,1.214.9,1.37a.137.137,0,0,1,.01.141.148.148,0,0,1-.138.068Z" transform="translate(-219.252 -390.543)"/>
    </g>
    <g id="Group_22" data-name="Group 22" transform="translate(202.478 378.159)">
      <path id="Path_21" data-name="Path 21" d="M227.1,393.542a.153.153,0,0,1-.167-.156V390.7a.153.153,0,0,1,.167-.157h1.756c.8,0,.962.434.962.8v.521c0,.364-.166.8-.962.8h-1.275v.726a.154.154,0,0,1-.168.156Zm1.756-1.435c.313,0,.313-.184.313-.245v-.521c0-.06,0-.245-.313-.245h-1.275v1.011Z" transform="translate(-226.934 -390.543)"/>
    </g>
    <g id="Group_23" data-name="Group 23" transform="translate(207.53 378.159)">
      <path id="Path_22" data-name="Path 22" d="M235.07,393.542a.154.154,0,0,1-.169-.156V390.7a.154.154,0,0,1,.169-.16h2.405a.154.154,0,0,1,.168.157v.24a.151.151,0,0,1-.163.156h-1.93v.651h1.492a.153.153,0,0,1,.167.156v.24a.151.151,0,0,1-.163.156h-1.5v.69h1.973a.154.154,0,0,1,.168.156v.241a.151.151,0,0,1-.163.156Z" transform="translate(-234.901 -390.543)"/>
    </g>
    <g id="Group_24" data-name="Group 24" transform="translate(212.344 378.159)">
      <path id="Path_23" data-name="Path 23" d="M245.907,393.542a.154.154,0,0,1-.169-.156v-1.705l-1,1.753a.225.225,0,0,1-.228.108h-.144a.226.226,0,0,1-.227-.106l-1-1.755v1.705a.154.154,0,0,1-.168.156h-.313a.154.154,0,0,1-.168-.156V390.7a.154.154,0,0,1,.168-.157h.361a.224.224,0,0,1,.226.107l1.193,2.1,1.192-2.1a.226.226,0,0,1,.228-.109h.361a.154.154,0,0,1,.168.157v2.686a.154.154,0,0,1-.168.156Z" transform="translate(-242.491 -390.543)"/>
    </g>
    <g id="Group_25" data-name="Group 25" transform="translate(218.552 378.159)">
      <path id="Path_24" data-name="Path 24" d="M254.686,393.542a.152.152,0,0,1-.168-.152V392.3H252.93v1.087a.153.153,0,0,1-.167.156h-.313a.154.154,0,0,1-.168-.156V390.7a.154.154,0,0,1,.168-.157h.313a.154.154,0,0,1,.167.157v1.047h1.589V390.7a.154.154,0,0,1,.168-.157H255a.154.154,0,0,1,.168.157v2.686a.154.154,0,0,1-.168.156Z" transform="translate(-252.281 -390.543)"/>
    </g>
    <g id="Group_26" data-name="Group 26" transform="translate(223.75 378.159)">
      <path id="Path_25" data-name="Path 25" d="M262.979,393.542a.154.154,0,0,1-.168-.156v-1.922l-1.586,1.982a.253.253,0,0,1-.219.1h-.36a.151.151,0,0,1-.169-.156V390.7a.154.154,0,0,1,.169-.157h.313a.153.153,0,0,1,.167.157v1.922l1.585-1.982a.253.253,0,0,1,.22-.1h.361a.153.153,0,0,1,.167.157v2.686a.153.153,0,0,1-.167.156Z" transform="translate(-260.477 -390.543)"/>
    </g>
    <g id="Group_27" data-name="Group 27" transform="translate(229.044 378.159)">
      <path id="Path_26" data-name="Path 26" d="M268.994,393.542a.154.154,0,0,1-.169-.156V390.7a.155.155,0,0,1,.169-.16H271.4a.154.154,0,0,1,.168.157v.24a.152.152,0,0,1-.164.156h-1.93v.651h1.492a.153.153,0,0,1,.167.156v.24a.151.151,0,0,1-.163.156h-1.5v.69h1.973a.154.154,0,0,1,.169.156v.241a.151.151,0,0,1-.164.156Z" transform="translate(-268.825 -390.543)"/>
    </g>
    <g id="Group_28" data-name="Group 28" transform="translate(233.857 378.159)">
      <path id="Path_27" data-name="Path 27" d="M276.583,393.542a.154.154,0,0,1-.168-.156V390.7a.152.152,0,0,1,.163-.157h1.569c.8,0,.962.434.962.8v.081a.573.573,0,0,1-.222.471.621.621,0,0,1,.414.571v.281c0,.364-.166.8-.962.8Zm1.756-.553c.313,0,.313-.184.313-.245v-.281c0-.06,0-.245-.313-.245h-1.275v.771Zm-.192-1.323c.313,0,.313-.185.313-.245v-.081c0-.06,0-.245-.313-.245h-1.083v.57Z" transform="translate(-276.415 -390.543)"/>
    </g>
    <g id="Group_29" data-name="Group 29" transform="translate(238.48 378.159)">
      <path id="Path_28" data-name="Path 28" d="M286.5,393.542a.209.209,0,0,1-.207-.114l-.264-.608h-1.367l-.264.6a.207.207,0,0,1-.207.118h-.337a.144.144,0,0,1-.133-.063.134.134,0,0,1,0-.135l1.251-2.685a.213.213,0,0,1,.207-.116h.337a.205.205,0,0,1,.2.107l1.257,2.7a.132.132,0,0,1,0,.134.143.143,0,0,1-.133.063Zm-.724-1.275-.431-.972-.43.972Z" transform="translate(-283.704 -390.543)"/>
    </g>
    <g id="Group_30" data-name="Group 30" transform="translate(243.503 378.159)">
      <path id="Path_29" data-name="Path 29" d="M294.063,393.542a.154.154,0,0,1-.168-.156v-.807h-1.031l-.549.858a.206.206,0,0,1-.2.1h-.337a.145.145,0,0,1-.138-.068.134.134,0,0,1,.007-.138l.552-.831a.721.721,0,0,1-.493-.723v-.441c0-.363.167-.8.961-.8h1.709a.154.154,0,0,1,.167.157v2.686a.153.153,0,0,1-.167.156Zm-1.4-2.446c-.313,0-.313.185-.313.245v.441c0,.06,0,.245.313.245H293.9V391.1Z" transform="translate(-291.624 -390.543)"/>
    </g>
    <g id="Group_31" data-name="Group 31" transform="translate(250.755 378.159)">
      <path id="Path_30" data-name="Path 30" d="M306.092,394.063a.153.153,0,0,1-.168-.156v-.365H303.71v.365a.153.153,0,0,1-.168.156h-.313a.153.153,0,0,1-.168-.156v-.762a.154.154,0,0,1,.168-.156h.191l.607-2.314a.182.182,0,0,1,.188-.132h1.829a.154.154,0,0,1,.168.156v2.29h.193a.153.153,0,0,1,.167.156v.762a.153.153,0,0,1-.167.156Zm-.529-1.074V391.1h-.985l-.5,1.893Z" transform="translate(-303.061 -390.543)"/>
    </g>
    <g id="Group_32" data-name="Group 32" transform="translate(256.194 378.119)">
      <path id="Path_31" data-name="Path 31" d="M312.6,393.559c-.8,0-.962-.434-.962-.8v-1.483c0-.363.166-.8.962-.8h1.2c.8,0,.962.434.962.8v1.483c0,.364-.167.8-.962.8Zm0-2.526c-.313,0-.313.184-.313.245v1.483c0,.061,0,.245.313.245h1.2c.313,0,.313-.185.313-.245v-1.483c0-.061,0-.245-.313-.245Z" transform="translate(-311.637 -390.48)"/>
    </g>
    <g id="Group_33" data-name="Group 33" transform="translate(261.103 378.159)">
      <path id="Path_32" data-name="Path 32" d="M319.546,393.582a.155.155,0,0,1-.168-.156v-.24a.153.153,0,0,1,.168-.156h.12a.262.262,0,0,0,.292-.23l.554-2.125c.012-.048.056-.132.213-.132h1.809a.157.157,0,0,1,.164.157v2.686a.154.154,0,0,1-.168.156h-.313a.154.154,0,0,1-.168-.156V391.1h-.985l-.462,1.753a.852.852,0,0,1-.935.733Z" transform="translate(-319.378 -390.543)"/>
    </g>
    <g id="Group_34" data-name="Group 34" transform="translate(266.734 378.159)">
      <path id="Path_33" data-name="Path 33" d="M330.759,393.542a.154.154,0,0,1-.168-.156v-1.922l-1.585,1.982a.252.252,0,0,1-.219.1h-.361a.151.151,0,0,1-.168-.156V390.7a.154.154,0,0,1,.168-.157h.313a.154.154,0,0,1,.168.157v1.922l1.585-1.982a.251.251,0,0,1,.219-.1h.36a.154.154,0,0,1,.169.157v2.686a.154.154,0,0,1-.169.156Z" transform="translate(-328.257 -390.543)"/>
    </g>
    <g id="Group_35" data-name="Group 35" transform="translate(272.028 378.159)">
      <path id="Path_34" data-name="Path 34" d="M339.011,393.542a.152.152,0,0,1-.168-.152V392.3h-1.589v1.087a.154.154,0,0,1-.168.156h-.313a.154.154,0,0,1-.169-.156V390.7a.154.154,0,0,1,.169-.157h.313a.154.154,0,0,1,.168.157v1.047h1.589V390.7a.154.154,0,0,1,.168-.157h.313a.154.154,0,0,1,.168.157v2.686a.154.154,0,0,1-.168.156Z" transform="translate(-336.605 -390.543)"/>
    </g>
    <g id="Group_36" data-name="Group 36" transform="translate(276.795 378.159)">
      <path id="Path_35" data-name="Path 35" d="M346.921,393.542a.208.208,0,0,1-.207-.115l-.265-.607h-1.365l-.264.6a.209.209,0,0,1-.208.118h-.337a.144.144,0,0,1-.133-.063.134.134,0,0,1,0-.134l1.251-2.686a.21.21,0,0,1,.207-.116h.337a.206.206,0,0,1,.2.107l1.256,2.7a.133.133,0,0,1,0,.134.144.144,0,0,1-.133.063Zm-.725-1.275-.43-.972-.43.972Z" transform="translate(-344.123 -390.543)"/>
    </g>
    <g id="Group_37" data-name="Group 37" transform="translate(160.082 356.69)">
      <path id="Path_36" data-name="Path 36" d="M173.017,368.965c-.518,0-.574-.312-.574-.446v-8.838l-8.975,8.974a1.136,1.136,0,0,1-.9.311h-1.911c-.474,0-.575-.242-.575-.446V357.137c0-.135.056-.447.575-.447h1.656c.517,0,.574.312.574.447v8.837L171.862,357a1.135,1.135,0,0,1,.9-.311h1.911c.518,0,.574.312.574.447v11.382c0,.134-.056.446-.574.446Z" transform="translate(-160.082 -356.69)"/>
    </g>
    <g id="Group_38" data-name="Group 38" transform="translate(177.666 356.69)">
      <path id="Path_37" data-name="Path 37" d="M194.372,368.965c-.518,0-.574-.312-.574-.446V358.6h-5.415c-.519,0-.575-.313-.575-.447v-1.018c0-.135.056-.447.575-.447h13.634c.519,0,.575.312.575.447v1.018c0,.134-.056.447-.575.447H196.6v9.916c0,.134-.056.446-.574.446Z" transform="translate(-187.809 -356.69)"/>
    </g>
    <g id="Group_39" data-name="Group 39" transform="translate(199.964 356.69)">
      <path id="Path_38" data-name="Path 38" d="M235.4,368.965a.844.844,0,0,1-.791-.332l-4.143-5.1h-4.686v4.99c0,.134-.056.446-.575.446h-1.656c-.518,0-.574-.312-.574-.446V357.137c0-.135.056-.447.574-.447H225.2c.518,0,.575.312.575.447v4.48h4.559l3.765-4.6a.841.841,0,0,1,.786-.325h1.784c.243,0,.4.068.467.2a.332.332,0,0,1-.058.361l-4.364,5.237,4.869,5.908a.335.335,0,0,1,.063.368c-.066.133-.223.2-.467.2Z" transform="translate(-222.971 -356.69)"/>
    </g>
    <g id="Group_40" data-name="Group 40" transform="translate(218.109 356.69)">
      <path id="Path_39" data-name="Path 39" d="M252.156,368.965c-.518,0-.574-.312-.574-.446V357.137c0-.135.056-.447.574-.447h9.3c3.949,0,4.779,1.721,4.779,3.165v2.209c0,1.443-.83,3.164-4.779,3.164h-7.072v3.291c0,.134-.056.446-.574.446Zm9.3-5.65c.9,0,1.974-.218,1.974-1.252v-2.209c0-1.035-1.074-1.252-1.974-1.252h-7.072v4.713Z" transform="translate(-251.582 -356.69)"/>
    </g>
    <g id="Group_41" data-name="Group 41" transform="translate(236.712 356.69)">
      <path id="Path_40" data-name="Path 40" d="M297.29,368.965c-.517,0-.573-.312-.573-.446V357.137c0-.135.056-.447.573-.447h1.658c.517,0,.573.312.573.447v11.382c0,.134-.056.446-.573.446Zm-15.8,0c-.518,0-.574-.312-.574-.446V357.137c0-.135.056-.447.574-.447h1.657c.518,0,.574.312.574.447v3.29h5.8c3.95,0,4.78,1.721,4.78,3.165V365.8c0,1.444-.83,3.164-4.78,3.164Zm8.028-1.912c.9,0,1.975-.217,1.975-1.252v-2.209c0-1.034-1.074-1.252-1.975-1.252h-5.8v4.713Z" transform="translate(-280.916 -356.69)"/>
    </g>
    <g id="Group_42" data-name="Group 42" transform="translate(260.03 356.69)">
      <path id="Path_41" data-name="Path 41" d="M335.461,368.965c-.518,0-.575-.312-.575-.446v-8.158l-5.9,8.27c-.193.258-.407.335-.921.335h-.765c-.513,0-.727-.077-.918-.332l-5.9-8.273v8.158c0,.134-.056.446-.574.446h-1.656c-.518,0-.574-.312-.574-.446V357.137c0-.135.056-.447.574-.447h1.911c.513,0,.727.077.918.332l6.6,9.284,6.6-9.281c.193-.258.408-.335.921-.335h1.911c.518,0,.574.312.574.447v11.382c0,.134-.056.446-.574.446Z" transform="translate(-317.685 -356.69)"/>
    </g>
  </g>
</svg>
