<svg xmlns="http://www.w3.org/2000/svg" width="47.422" height="33.173" viewBox="0 0 47.422 33.173">
  <path id="Path_7239" data-name="Path 7239" d="M465.583,21.393H447a2.748,2.748,0,0,0-2.746,2.744v4.835a8.715,8.715,0,0,0-2.193-.565,5.662,5.662,0,0,0,1.453-3.784V12.342a2.094,2.094,0,0,0-2.091-2.092h-10.13a4.735,4.735,0,0,0-4.73,4.73v9.642a5.664,5.664,0,0,0,1.525,3.864A8.8,8.8,0,0,0,420.9,37.12v6.3h46.154V41.178H461.3a.971.971,0,0,1-.97-.971v-.342h5.25a2.747,2.747,0,0,0,2.744-2.744V24.137A2.747,2.747,0,0,0,465.583,21.393ZM446.5,24.137a.5.5,0,0,1,.5-.5h18.584a.5.5,0,0,1,.5.5v9.611h-16.99a8.829,8.829,0,0,0-2.592-3.456Zm-17.692-3.967a9.893,9.893,0,0,0,3.16.539,8.647,8.647,0,0,0,2.246-.293A18.385,18.385,0,0,0,438,18.9a3.813,3.813,0,0,1,1.949-.665c.694.084,1.15.826,1.318,1.15v5.233a3.449,3.449,0,0,1-3.446,3.446h-5.568a3.451,3.451,0,0,1-3.447-3.446Zm9.248,10.408-2.731,3.491-2.8-3.491ZM431.292,12.5h9.975v3.833a3.33,3.33,0,0,0-1.047-.319,5.517,5.517,0,0,0-3.232.889,16.217,16.217,0,0,1-3.358,1.348,7.433,7.433,0,0,1-4.823-.48V14.98A2.487,2.487,0,0,1,431.292,12.5Zm14.581,28.682H423.151V37.12a6.548,6.548,0,0,1,6.5-6.539l5.7,7.105,5.559-7.107h.074a6.548,6.548,0,0,1,6.54,6.541v4.058Zm3.893,0V39.864h2.98v.342a.973.973,0,0,1-.971.971Zm8.487,0h-3.428a3.19,3.19,0,0,0,.166-.971v-.342h3.1v.342A3.164,3.164,0,0,0,458.253,41.178Zm7.33-3.559H449.766v-.5a8.806,8.806,0,0,0-.08-1.126h16.4V37.12A.5.5,0,0,1,465.583,37.619Z" transform="translate(-420.905 -10.25)" fill="#0095ce"/>
</svg>
