<svg xmlns="http://www.w3.org/2000/svg" width="44.093" height="39.457" viewBox="0 0 44.093 39.457">
  <path id="Path_7237" data-name="Path 7237" d="M299.191,22.168h-2.462a3.012,3.012,0,0,0-2.969-2.55h-1.827V17.426l.867.715a2.047,2.047,0,0,0,2.773-.1l1.306-1.306A2.04,2.04,0,0,0,297,13.981l-4.252-5.157a1.983,1.983,0,0,0-.162-2.614l-2.76-2.761a3.669,3.669,0,0,0-5.188,0L282.288,5.8a3.668,3.668,0,0,0,0,5.188l2.76,2.761a1.972,1.972,0,0,0,2.615.163l2.025,1.668v4.042h-1.827a3.014,3.014,0,0,0-2.969,2.55H274.275a3.013,3.013,0,0,0-2.969-2.55h-1.827V15.576l2.025-1.669a1.972,1.972,0,0,0,2.615-.163l2.76-2.76a3.669,3.669,0,0,0,0-5.188l-2.347-2.347a3.668,3.668,0,0,0-5.188,0l-2.76,2.76a1.972,1.972,0,0,0-.163,2.616l-4.234,5.136a2.047,2.047,0,0,0,.1,2.774l1.305,1.305a2.05,2.05,0,0,0,1.449.6,1.99,1.99,0,0,0,1.305-.479l.886-.73v2.19h-1.827a3.014,3.014,0,0,0-2.969,2.55h-2.593a2.376,2.376,0,0,0-2.373,2.372v1.726a2.368,2.368,0,0,0,2.134,2.348V39.762a2.071,2.071,0,0,0,2.069,2.069h35.687a2.072,2.072,0,0,0,2.07-2.069V28.614a2.368,2.368,0,0,0,2.133-2.348V24.54A2.375,2.375,0,0,0,299.191,22.168Zm-5.073-5.85-4.841-3.99,1.889-1.889,3.991,4.841ZM283.876,9.395a1.422,1.422,0,0,1,0-2.011l2.347-2.347a1.457,1.457,0,0,1,2.012,0l2.58,2.579-1.073,1.073,0,0L287.529,10.9l0,0-1.073,1.072ZM270.933,5.036a1.457,1.457,0,0,1,2.012,0l2.347,2.347a1.425,1.425,0,0,1,0,2.012l-2.58,2.58L271.639,10.9l0,0L269.426,8.69h0l-1.073-1.073Zm-5.884,11.282L264.01,15.28,268,10.439l.944.944.945.946Zm22.812,5.544h5.9a.77.77,0,0,1,.614.3h-7.126A.767.767,0,0,1,287.861,21.863Zm-22.454,0h5.9a.77.77,0,0,1,.614.3h-7.126A.767.767,0,0,1,265.406,21.863Zm-5.69,2.677a.127.127,0,0,1,.128-.127h39.347a.127.127,0,0,1,.127.127v1.726a.127.127,0,0,1-.127.127H259.844a.128.128,0,0,1-.128-.127Zm37.468,15.045H261.851V28.639h35.334Z" transform="translate(-257.471 -2.374)" fill="#0095ce"/>
</svg>
