<svg xmlns="http://www.w3.org/2000/svg" width="45.954" height="39.67" viewBox="0 0 45.954 39.67">
  <path id="Path_7238" data-name="Path 7238" d="M385.3,23.18h-6.973a.769.769,0,0,1-.768-.768v-.2h5.091a2.134,2.134,0,0,0,2.131-2.131V7.442a2.134,2.134,0,0,0-2.131-2.131h-17.7a2.133,2.133,0,0,0-2.131,2.131v12.64a2.133,2.133,0,0,0,2.131,2.131h5.539v.2a.769.769,0,0,1-.769.768h-8.561V20.693a2.957,2.957,0,0,0-2.954-2.954h-7.7a2.957,2.957,0,0,0-2.954,2.954V23.18h-8.206v2.246h2.584V43.858h2.246v-9.82h3.376v2.69h5.441v6.007h-2.465v2.246h7.595V42.735h-2.884V36.728h5.921v-2.69h19.163v9.82h2.246V25.426H385.3ZM382.53,7.557V16.47H365.061V7.557ZM365.061,18.716H382.53v1.25H365.061Zm7.669,3.7v-.2h2.578v.2a2.977,2.977,0,0,0,.111.768h-2.8A3.016,3.016,0,0,0,372.731,22.412Zm-28.559,9.38V25.426h3.376v6.366Zm14.737,2.69h-9.116V20.693a.709.709,0,0,1,.708-.709h7.7a.709.709,0,0,1,.708.709Zm21.409-2.69H361.155V25.426h19.163Z" transform="translate(-339.342 -5.311)" fill="#0095ce"/>
</svg>
