<svg xmlns="http://www.w3.org/2000/svg" width="17.462" height="20.049" viewBox="0 0 17.462 20.049">
  <path id="Path_7409" data-name="Path 7409" d="M-126.385-82.976a3.762,3.762,0,0,0,.959-2.5v-6.995a1.4,1.4,0,0,0-1.4-1.4h-5.77a3.158,3.158,0,0,0-3.154,3.154v5.237a3.769,3.769,0,0,0,1,2.545,5.35,5.35,0,0,0-4.392,5.256v3.857h17.463v-3.857A5.351,5.351,0,0,0-126.385-82.976Zm-7.861-4.755a5.984,5.984,0,0,0,1.821.295,5.264,5.264,0,0,0,1.364-.178,11.174,11.174,0,0,0,2.287-.913,2.235,2.235,0,0,1,1.125-.392c.368.045.62.44.722.631v2.816a2.3,2.3,0,0,1-2.295,2.295h-2.729a2.3,2.3,0,0,1-2.3-2.295Zm5.312,6.214-1.481,1.893-1.518-1.893Zm-3.658-10.845h5.665v2.106a2.023,2.023,0,0,0-.542-.151,3.358,3.358,0,0,0-1.982.541,9.668,9.668,0,0,1-2,.8,4.349,4.349,0,0,1-2.8-.266v-1.379A1.656,1.656,0,0,1-132.592-92.363Zm9.415,17.048h-14.462v-2.357a3.847,3.847,0,0,1,3.787-3.84l3.452,4.3,3.371-4.31h.007a3.851,3.851,0,0,1,3.846,3.846Z" transform="translate(139.139 93.863)" fill="#0095ce"/>
</svg>
