<svg xmlns="http://www.w3.org/2000/svg" width="17.247" height="12" viewBox="0 0 17.247 12">
  <path id="Path_3862" data-name="Path 3862" d="M582.571,155.441a2.179,2.179,0,0,0-1.869,1.689,27.627,27.627,0,0,0,0,8.141,2.179,2.179,0,0,0,1.869,1.688,86.423,86.423,0,0,0,12.905,0,2.179,2.179,0,0,0,1.87-1.688,27.622,27.622,0,0,0,0-8.141,2.179,2.179,0,0,0-1.87-1.689,57.432,57.432,0,0,0-6.453-.241C586.853,155.23,584.682,155.23,582.571,155.441Zm4.613,8.111v-4.764l4.553,2.382Z" transform="translate(-580.4 -155.2)" fill="#0095ce"/>
</svg>
